<?xml version="1.0" encoding="UTF-8" standalone="no"?>
<!DOCTYPE svg PUBLIC "-//W3C//DTD SVG 20010904//EN" "http://www.w3.org/TR/2001/REC-SVG-20010904/DTD/svg10.dtd">
<svg version="1.0" xmlns="http://www.w3.org/2000/svg" width="1050.000000pt" height="336.000000pt" viewBox="0 0 1050.000000 336.000000" preserveAspectRatio="xMidYMid meet">
<metadata>
Created by potrace 1.12, written by Peter Selinger 2001-2015
</metadata>
<g transform="translate(0.000000,336.000000) scale(0.100000,-0.100000)" fill="#000000" stroke="none">
<path d="M6864 3135 l-6 -15 -33 0 -34 0 -17 -17 -17 -17 -35 -2 -36 -1 -4 -11 -4 -12 -17 0 -18 0 -18 -20 -18 -20 -18 5 -18 6 -11 -21 -11 -20 -24 0 -25 0 0 -9 0 -9 -25 -6 -25 -6 0 -15 0 -15 14 0 15 0 6 -10 6 -10 -25 0 -26 0 0 16 0 15 -22 -7 -23 -7 -5 -7 -5 -7 -22 -7 -23 -7 0 -10 0 -9 -18 0 -19 0 -18 -20 -18 -20 -14 0 -14 0 -14 -12 -14 -13 -15 -12 -15 -13 -9 0 -9 0 -23 -20 -23 -20 -14 0 -13 0 0 -10 0 -10 -15 0 -15 0 -12 -20 -13 -20 -21 0 -22 0 -6 -15 -5 -15 -21 0 -20 0 0 -10 0 -10 -19 0 -18 0 -26 -20 -25 -20 -15 6 -15 6 -12 -22 -12 -22 -22 6 -23 6 -19 -15 -19 -14 -147 -1 -147 0 -5 -9 -6 -9 -60 5 -60 6 -15 -13 -16 -13 -153 2 -153 2 -13 -15 -12 -16 -62 0 -61 0 -40 -15 -40 -14 -67 -1 -67 0 -9 -16 -8 -15 -55 -1 -54 -1 -16 -13 -16 -14 -59 -1 -59 -1 -16 -14 -15 -14 -57 -3 -57 -3 -12 -12 -12 -12 -36 0 -36 0 -20 -15 -19 -14 -32 -1 -32 0 -15 -15 -15 -15 -37 0 -37 0 -12 -17 -13 -17 -46 3 -47 3 -12 -10 -12 -9 -30 -8 -30 -8 -64 2 -64 1 -16 -14 -16 -13 -54 -6 -53 -6 -14 -12 -14 -11 -47 -6 -48 -6 -90 3 -90 3 -194 1 -194 2 -5 -12 -4 -13 -27 0 -28 0 -18 -20 -18 -20 -16 0 -15 0 -48 -50 -48 -50 0 -19 0 -19 -20 -5 -20 -5 0 -44 0 -43 23 -22 24 -22 31 1 32 1 19 -17 18 -17 28 36 27 36 15 -20 14 -21 30 17 30 18 10 -17 10 -18 13 0 13 0 11 23 11 22 0 -28 1 -28 16 -6 16 -6 7 11 6 10 20 4 20 3 -3 -18 -3 -17 15 -6 14 -6 21 12 21 11 0 -10 0 -9 60 -44 60 -43 6 -20 7 -20 6 -5 7 -5 23 -44 22 -44 -9 -9 -10 -10 -6 11 -7 11 -20 0 -19 0 0 -13 0 -13 12 -12 12 -12 -27 0 -27 0 0 18 0 18 12 12 12 12 -11 11 -11 11 -28 -18 -29 -19 -8 -10 -8 -10 6 22 6 22 -28 8 -28 8 -53 -1 -52 -2 -14 -11 -14 -12 -7 11 -6 10 -32 1 -32 0 -50 28 -50 28 -5 34 -5 34 -32 3 -33 3 0 10 0 9 -15 0 -15 0 0 -9 0 -9 -25 -6 -26 -7 -39 -40 -40 -41 0 -32 1 -31 17 -20 17 -20 41 -33 42 -32 15 0 15 0 12 -15 12 -15 28 0 28 0 12 -15 12 -15 40 0 39 0 5 -15 6 -15 28 0 28 0 12 -15 12 -15 15 0 14 0 15 -15 15 -15 18 0 19 0 12 -15 12 -15 18 0 18 0 12 -15 12 -15 15 0 15 0 45 -30 44 -30 8 0 9 0 12 -15 12 -15 22 0 21 -1 19 -14 20 -15 22 0 22 0 12 -15 12 -15 34 0 33 0 33 -30 32 -30 19 0 18 0 15 -15 15 -15 30 0 30 0 15 -15 15 -15 59 0 58 0 28 -15 29 -15 41 0 42 0 28 -15 29 -15 70 0 70 -1 19 -14 20 -15 52 0 52 0 12 -15 12 -15 70 0 69 0 22 -14 22 -14 137 0 136 0 94 -97 93 -97 58 -39 58 -39 8 0 9 0 12 -15 12 -15 17 0 17 0 32 -31 31 -30 43 3 43 3 3 53 3 54 -15 24 -16 23 0 15 0 15 -14 8 -14 8 -7 33 -7 32 15 0 15 0 6 -15 5 -15 100 0 99 0 6 -15 5 -15 156 0 156 0 21 -11 20 -11 89 -4 89 -4 62 -44 63 -45 34 -28 34 -27 64 -43 63 -43 9 0 8 0 18 -20 18 -20 22 0 23 0 6 -15 5 -15 21 0 20 0 0 -10 0 -10 28 -6 27 -6 35 -14 35 -15 17 -9 18 -10 17 0 18 0 30 -20 30 -20 94 0 94 0 36 22 36 22 24 22 24 22 -7 54 -7 53 -16 43 -16 42 -8 0 -9 0 0 24 0 24 -14 11 -14 12 -6 24 -6 25 -10 0 -10 0 0 9 0 9 130 3 129 4 13 12 12 13 67 0 68 0 15 15 15 15 25 0 26 0 0 -10 0 -10 24 -6 24 -6 65 -66 64 -67 19 -30 19 -30 64 -62 65 -63 12 0 12 0 31 -35 30 -35 26 0 25 0 0 -10 0 -10 18 0 19 0 31 16 32 15 0 14 0 13 15 12 15 12 0 41 0 40 74 73 74 73 4 23 3 23 49 32 49 32 41 39 41 39 34 19 33 19 39 39 39 38 0 8 0 8 15 12 15 12 0 44 0 44 -45 41 -45 42 0 9 0 9 35 -7 35 -6 25 16 24 16 35 0 35 0 11 20 10 19 30 -6 30 -5 26 17 27 17 80 0 80 0 9 -16 9 -16 20 0 20 0 15 -15 15 -15 18 0 18 0 27 -25 27 -25 14 0 13 0 36 -35 36 -35 11 0 10 0 14 -12 14 -13 13 -11 14 -11 27 -7 27 -6 0 -10 0 -10 15 0 16 0 5 -15 6 -15 19 0 18 0 11 -20 11 -20 13 0 14 0 53 -36 54 -36 3 -9 4 -9 19 0 20 0 32 -30 32 -30 9 0 8 0 38 -30 38 -30 15 0 15 0 12 -15 12 -15 18 0 18 0 12 -15 12 -15 27 0 26 0 11 8 10 7 7 19 7 18 -40 44 -41 44 9 17 9 16 -27 41 -27 41 -5 58 -5 59 -11 7 -12 7 -3 64 -4 64 -11 4 -12 4 0 13 0 13 13 5 12 4 -12 22 -13 21 0 19 0 19 13 5 12 4 -12 22 -13 21 0 24 0 24 -6 16 -6 16 -14 0 -14 0 0 9 0 9 11 4 10 3 -10 28 -11 28 0 41 0 40 20 5 20 5 0 26 0 25 17 12 17 13 -1 36 -1 36 9 6 9 5 0 19 0 19 13 8 13 8 21 35 21 35 12 43 11 43 27 12 27 12 19 19 19 19 2 41 1 41 18 28 18 27 8 0 8 0 7 29 6 29 15 6 14 5 0 26 0 25 10 0 10 0 10 23 10 22 11 16 12 16 -7 26 -6 27 -33 0 -32 -1 -60 -14 -60 -15 -37 0 -37 0 -13 -13 -13 -12 -70 -23 -70 -23 -17 -10 -18 -9 -21 0 -21 0 -25 -20 -26 -20 -17 0 -18 0 -12 -15 -12 -15 -19 0 -18 0 -5 -9 -6 -9 -71 -36 -71 -36 -18 0 -19 0 -5 -9 -6 -9 -41 -7 -41 -7 -26 -14 -27 -14 -16 0 -15 0 -10 -8 -9 -9 -46 -16 -45 -17 -53 -4 -53 -4 -11 -11 -11 -11 -45 0 -46 1 -19 14 -20 15 -78 0 -77 0 -41 -21 -40 -21 -18 7 -17 7 23 11 22 10 0 26 0 27 -16 22 -15 22 -13 0 -14 0 -12 15 -12 15 -102 0 -101 -1 -25 -14 -25 -14 -65 -1 -66 0 -11 11 -10 10 -57 6 -57 6 -24 28 -24 29 -29 0 -30 0 -12 15 -12 15 -40 0 -39 0 -5 15 -6 15 -27 0 -26 1 -19 14 -20 15 -27 0 -27 0 -6 15 -5 15 -35 0 -34 0 -6 15 -5 15 -26 0 -26 0 -15 15 -15 15 -23 0 -24 0 -12 15 -12 15 -25 0 -24 0 -15 15 -15 15 -30 0 -30 0 -24 16 -24 16 -19 -6 -19 -6 -13 15 -12 15 -55 0 -55 0 4 13 5 12 69 7 69 8 58 6 58 6 6 14 5 14 12 0 13 0 21 23 22 23 0 8 0 7 -75 75 -75 75 0 13 0 14 -15 12 -15 12 0 20 0 19 -15 5 -15 6 0 68 0 68 -15 12 -15 12 0 25 0 24 16 24 16 25 -16 6 -16 6 0 13 0 13 16 6 16 6 -12 15 -12 15 -65 0 -64 0 -5 -15z m76 -105 l0 -61 15 -36 15 -35 0 -29 0 -29 -24 0 -24 0 -5 20 -5 19 -36 18 -36 17 -11 -11 -11 -11 6 -11 7 -11 17 0 17 -1 23 -18 22 -19 0 -7 0 -8 -42 7 -43 6 18 -11 17 -10 0 -14 0 -15 30 0 30 0 0 15 0 15 24 0 24 0 16 -6 16 -6 0 -24 0 -23 -18 -10 -19 -10 -11 11 -12 12 -12 -12 -12 -12 -28 0 -28 0 0 -20 0 -20 49 0 50 0 27 25 27 25 8 0 9 0 0 -17 0 -18 31 -33 31 -33 -5 -5 -4 -5 -25 10 -24 9 -13 16 -13 16 -17 0 -16 -1 -18 -13 -17 -13 -24 4 -24 5 -6 -11 -7 -11 -18 0 -18 0 -18 -20 -19 -21 -25 3 -26 3 0 10 0 10 23 3 22 3 0 15 0 14 25 0 25 0 0 9 0 8 -25 27 -25 27 0 11 0 10 26 -5 26 -5 5 13 5 13 -21 21 -21 21 -9 0 -10 0 -3 -22 -3 -23 -42 0 -42 0 -13 -18 -14 -19 -34 -7 -35 -7 0 -24 0 -25 -26 -1 -26 -1 -25 -6 -25 -7 -12 -27 -13 -28 -14 20 -14 19 0 5 1 6 12 15 12 15 30 20 30 20 39 20 38 20 5 13 5 12 23 0 23 0 6 15 5 15 25 0 25 0 8 14 8 14 25 4 25 3 0 15 0 15 -18 3 -18 4 -19 -17 -18 -16 -35 -6 -35 -5 -25 -24 -26 -24 -16 0 -17 0 -25 -20 -26 -20 -12 0 -13 0 -6 -15 -5 -15 -17 0 -16 0 -18 -22 -19 -23 -12 12 -13 13 14 25 14 25 17 -5 18 -6 11 21 11 20 18 0 19 0 12 15 12 15 23 0 23 0 30 25 30 25 15 0 14 0 26 20 25 20 15 -6 15 -6 11 20 10 19 29 -5 30 -4 26 17 26 17 0 14 0 15 15 5 15 6 0 14 0 14 -19 0 -19 0 -12 -15 -12 -15 -14 0 -14 0 0 -10 0 -10 -25 0 -25 0 0 10 0 10 25 0 25 0 0 14 0 14 -25 6 -25 6 0 10 0 10 29 0 29 0 6 13 6 12 -6 -22 -5 -23 20 0 21 0 0 14 0 15 22 15 22 16 8 0 8 0 0 -60z m-350 -50 l0 -10 -15 0 -15 0 0 10 0 10 15 0 15 0 0 -10z m150 -5 l0 -15 -14 0 -15 0 -6 -21 -7 -20 -31 3 -30 3 -5 13 -4 12 19 0 18 0 30 20 30 20 8 0 7 0 0 -15z m-205 -25 l6 -10 -21 0 -21 0 6 10 6 10 9 0 9 0 6 -10z m76 -30 l9 0 0 -20 0 -20 -5 0 -6 0 -24 16 -25 16 6 10 6 9 15 -5 15 -6 9 0z m-181 -35 l0 -15 -4 0 -4 0 -16 6 -16 6 0 9 0 9 20 0 20 0 0 -15z m131 -7 l18 -23 1 -8 0 -8 -22 6 -23 7 -15 14 -15 15 15 9 15 10 3 0 4 0 19 -22z m-186 -18 l6 -10 -18 -7 -18 -7 -14 -13 -13 -14 -10 3 -9 4 0 9 0 10 18 4 18 3 8 14 8 14 9 0 9 0 6 -10z m145 -38 l0 -13 -22 3 -23 3 -3 19 -4 19 14 8 13 9 13 -17 12 -17 0 -14z m-68 -34 l-11 -11 -15 6 -16 6 6 15 6 16 20 -11 20 -11 -10 -10z m-167 7 l0 -10 -22 -3 -22 -3 -11 -15 -12 -14 -9 0 -9 0 0 15 0 15 14 0 14 0 6 16 6 15 22 -3 23 -3 0 -10z m95 -36 l0 -20 -30 -10 -30 -11 0 -9 0 -9 -20 0 -20 0 0 13 0 13 12 12 12 12 22 0 22 0 6 15 5 15 11 0 10 0 0 -21z m-190 -18 l0 -10 -10 -6 -11 -7 -15 6 -15 6 6 10 6 10 20 0 19 0 0 -9z m-52 -33 l-5 -13 -18 0 -18 0 -4 13 -5 12 27 0 27 0 -4 -12z m662 -13 l0 -25 -14 0 -15 0 -6 10 -7 11 6 14 5 15 16 0 15 0 0 -25z m-537 -2 l7 -6 -11 -14 -11 -13 -23 0 -23 0 -6 -15 -5 -15 -42 0 -41 0 4 13 5 12 33 3 34 4 24 19 25 19 12 0 12 0 6 -7z m457 -28 l23 -25 -7 -7 -7 -7 -17 10 -17 11 -30 -16 -30 -16 -33 -24 -34 -23 -9 9 -9 9 16 22 15 22 20 0 20 0 15 13 15 12 17 18 16 17 6 0 7 0 23 -25z m-708 -20 l0 -9 -11 -4 -11 -4 0 17 0 17 11 -4 11 -3 0 -10z m318 6 l0 -9 -15 -12 -15 -13 -6 6 -6 6 5 16 6 15 16 0 15 0 0 -9z m645 -42 l0 -14 -41 3 -41 3 -6 -15 -6 -16 -22 0 -22 0 -11 -14 -11 -15 -20 -3 -20 -3 0 15 0 15 28 3 27 3 0 15 0 14 30 0 30 0 0 10 0 11 23 8 22 8 20 -7 20 -7 0 -14z m-995 6 l0 -15 -4 0 -4 0 -16 6 -16 6 0 9 0 9 20 0 20 0 0 -15z m458 -13 l3 -22 -13 0 -14 0 -11 11 -11 11 -11 -20 -11 -20 -37 -13 -38 -12 -8 -13 -8 -14 -19 0 -20 0 0 15 0 15 19 0 20 0 33 30 32 30 14 0 13 0 16 15 15 16 17 -3 16 -3 3 -23z m599 -2 l13 -19 -10 -6 -10 -6 -10 6 -10 6 0 20 0 19 8 0 7 0 12 -20z m105 -13 l33 -34 -21 -16 -21 -16 4 24 5 23 -21 7 -21 6 0 20 0 19 4 0 4 0 34 -33z m-1217 4 l5 -10 -9 -5 -9 -6 -16 6 -16 6 0 9 0 9 19 0 20 0 6 -9z m813 -3 l-5 -13 -26 -3 -27 -3 0 15 0 16 31 0 31 0 -4 -12z m-888 -28 l0 -10 -20 0 -20 0 0 10 0 10 20 0 20 0 0 -10z m670 1 l0 -9 -40 -21 -41 -21 -14 0 -15 0 0 11 0 11 20 5 20 5 0 8 0 9 23 4 22 4 13 2 12 1 0 -9z m144 0 l6 -9 -16 -6 -17 -6 -4 4 -5 5 7 10 6 11 9 0 9 0 5 -9z m306 -10 l10 -20 0 -20 0 -21 -10 0 -9 0 -8 13 -8 12 -20 11 -20 11 -3 17 -3 16 30 0 30 0 11 -19z m129 -13 l13 -18 -51 0 -51 0 0 11 0 11 30 -7 30 -7 6 17 6 16 2 -3 2 -3 13 -17z m-989 -5 l0 -8 -25 -24 -26 -24 -6 7 -6 6 23 25 23 25 9 0 8 0 0 -7z m488 -15 l-4 -12 -12 -4 -12 -4 0 16 0 16 16 0 16 0 -4 -12z m300 -16 l4 -12 -15 0 -14 0 -23 -20 -24 -21 -21 3 -20 3 1 10 0 10 20 4 19 3 24 19 24 20 11 -4 10 -3 4 -12z m-1022 -9 l12 -4 6 -25 6 -24 9 0 10 0 15 16 16 15 1 -8 1 -8 -1 -9 -2 -8 11 -13 11 -14 15 6 14 5 1 17 1 16 5 -17 4 -16 15 -6 15 -6 19 13 20 12 0 15 0 16 38 17 39 17 6 0 7 0 0 -25 0 -25 14 0 15 0 3 -25 3 -26 10 0 10 0 3 16 4 16 -15 17 -14 17 -6 18 -7 18 18 -3 17 -3 3 -23 4 -23 28 6 29 6 20 -20 21 -21 12 0 11 0 19 17 19 17 21 -13 21 -13 8 14 9 13 0 8 0 7 16 0 16 0 25 -20 25 -20 -16 -6 -16 -6 0 -9 0 -8 23 -24 22 -24 13 4 12 5 0 16 1 17 13 -17 13 -18 13 0 13 0 -6 36 -6 37 10 19 10 19 10 -6 9 -6 0 -26 0 -25 36 7 37 6 15 16 16 15 11 -15 11 -16 29 -7 29 -7 -25 -10 -24 -10 -22 2 -23 2 -1 -30 -2 -31 -1 -12 -1 -13 15 0 14 0 6 25 6 25 19 1 20 1 13 2 12 1 0 14 0 14 15 12 15 13 7 -7 7 -7 -13 -8 -13 -9 7 -22 7 -23 18 22 17 23 46 5 47 6 0 -11 0 -10 -22 -6 -23 -6 -20 0 -20 0 -13 -21 -14 -21 10 -10 10 -10 20 11 21 11 25 0 26 0 0 -14 0 -14 -25 -6 -25 -6 0 -20 0 -20 15 0 15 0 0 10 0 11 35 20 35 21 0 8 0 9 -15 14 -14 15 32 5 32 5 4 -4 3 -3 -16 -17 -17 -16 6 -18 6 -19 -17 -9 -16 -9 3 -18 4 -18 13 -5 12 -4 0 21 0 21 18 18 17 19 10 16 10 17 23 -6 23 -7 -23 -11 -23 -12 0 -14 0 -15 28 -3 27 -3 0 -10 0 -9 -25 6 -25 6 -6 -17 -7 -16 11 -11 11 -11 24 7 24 6 24 19 24 20 -13 20 -12 21 20 0 20 0 -6 -25 -6 -25 17 -7 18 -6 12 16 12 17 14 0 13 0 -17 -17 -17 -17 17 -18 16 -18 -21 0 -22 0 0 10 0 10 -15 0 -15 0 -1 -12 -1 -13 2 -15 2 -15 11 -7 12 -8 33 0 32 0 0 -35 0 -35 15 0 15 0 0 19 0 19 14 11 13 11 32 -11 31 -11 0 -20 0 -20 33 7 32 8 7 10 7 11 -11 14 -11 13 -21 -2 -21 -1 -9 1 -10 1 23 21 22 21 32 -32 32 -31 11 16 11 15 16 0 16 0 11 -20 11 -20 25 -6 26 -7 9 14 9 14 26 -33 27 -34 29 6 29 6 16 -20 17 -20 24 0 23 0 5 -15 6 -15 37 2 36 2 38 -2 39 -2 -4 -12 -5 -13 -19 -4 -19 -3 -12 -10 -13 -10 0 -18 0 -18 -16 -6 -17 -6 -5 5 -5 5 11 0 10 0 7 30 7 31 -12 14 -12 14 -24 -11 -24 -11 0 -39 0 -38 10 0 10 0 0 -14 0 -15 22 -15 21 -15 -13 -16 -12 -15 31 -13 32 -14 -16 -13 -16 -13 26 -27 26 -27 -7 -27 -6 -26 17 -6 16 -7 12 12 11 11 -11 20 -12 19 22 3 22 3 0 20 0 20 -28 3 -29 3 18 20 18 20 -29 24 -30 24 -12 1 -12 0 5 14 6 14 15 6 15 6 21 -15 21 -14 13 11 13 10 0 25 0 24 -16 6 -17 6 -13 -18 -14 -19 0 11 0 11 6 16 6 16 18 0 17 0 18 -20 18 -20 21 0 22 0 23 -17 24 -16 -18 -13 -18 -13 7 -18 7 -18 17 21 17 22 42 26 43 26 5 0 5 0 0 -16 0 -17 -16 -12 -16 -11 7 -32 7 -32 31 -1 32 0 -23 -11 -23 -11 3 -46 3 -46 20 0 20 0 3 30 4 30 9 10 9 9 0 18 0 17 18 10 17 10 -11 18 -11 18 15 23 15 23 14 -21 14 -20 9 0 9 0 6 20 6 20 10 0 9 0 0 -21 0 -20 -30 -10 -30 -11 0 -13 0 -14 20 -6 19 -6 20 10 20 11 6 20 6 20 12 0 12 0 12 -19 12 -19 -25 -6 -25 -7 3 -17 3 -17 22 -3 22 -3 20 11 21 10 11 21 10 20 -20 6 -21 5 0 9 0 8 17 9 17 10 18 -12 19 -11 9 15 10 15 -6 18 -5 17 6 0 6 0 10 -30 11 -30 13 0 14 0 6 21 7 20 24 -15 23 -16 15 0 14 0 7 31 7 31 33 -37 32 -38 11 7 10 6 33 -30 33 -30 28 0 27 0 7 -12 8 -12 -12 -4 -12 -4 0 -14 0 -14 11 0 12 0 13 18 13 17 1 -17 0 -18 -8 0 -8 0 0 -72 1 -73 39 2 40 3 10 10 10 10 23 0 22 0 11 -17 10 -18 11 18 10 17 48 -4 49 -4 9 -5 9 -6 42 6 42 6 0 10 0 10 16 18 16 18 -26 7 -25 6 -16 -16 -16 -16 -13 0 -12 0 -12 12 -12 12 -19 -11 -19 -12 -21 6 -21 5 36 25 36 24 157 -3 156 -3 0 -15 0 -15 -32 3 -33 3 -17 -9 -17 -10 -18 11 -18 11 -11 -11 -12 -12 16 -6 17 -5 15 -5 15 -4 0 -27 0 -26 -16 13 -16 13 -13 -18 -14 -18 6 -14 5 -14 -23 -25 -24 -25 -7 0 -8 0 0 29 0 29 21 5 21 6 -4 13 -5 13 -15 3 -15 3 -6 -21 -5 -20 -26 0 -27 0 -5 -15 -6 -16 -15 12 -14 12 -11 -11 -12 -12 -13 0 -13 0 0 26 0 26 -72 -7 -73 -7 -10 -6 -10 -6 -22 2 -21 3 -6 -9 -6 -10 15 -12 15 -12 0 -9 0 -8 -22 -3 -23 -3 -3 -23 -4 -23 12 -14 12 -14 -26 -7 -26 -6 0 -13 0 -13 15 -6 15 -5 0 -11 0 -10 -30 0 -30 0 0 -14 0 -15 -21 -6 -20 -7 5 -15 6 -16 -6 -33 -6 -34 -15 0 -15 0 12 15 13 16 -11 24 -12 25 -10 0 -10 0 0 -17 0 -18 -10 -15 -9 -14 -18 15 -18 16 -12 7 -11 6 -16 -16 -16 -16 -80 0 -80 0 -23 -18 -23 -18 -25 5 -26 5 -18 -18 -18 -18 -40 -1 -41 -1 -4 -12 -4 -12 -31 0 -32 0 -29 -15 -28 -15 -34 0 -34 0 -12 -20 -13 -20 -37 0 -38 0 0 -12 1 -13 24 -17 24 -18 29 25 30 25 14 0 15 0 6 -6 6 -7 -9 -17 -10 -18 -20 5 -21 6 -6 -22 -6 -22 -14 5 -15 6 -24 0 -24 0 0 14 0 14 -15 12 -15 12 -17 -6 -17 -7 27 -23 27 -23 0 -17 0 -16 -20 0 -19 0 -9 16 -9 16 -19 -4 -19 -3 -14 -29 -14 -29 -12 16 -12 17 -17 0 -16 0 0 -7 0 -7 22 -23 21 -23 29 0 28 0 0 -14 0 -14 25 -6 25 -6 0 -9 0 -10 16 -15 15 -16 -3 -17 -3 -17 -17 17 -17 17 -15 0 -15 0 -6 18 -5 19 -26 11 -25 12 -12 0 -12 0 -12 19 -12 19 -20 -5 -21 -5 -6 16 -6 16 -18 0 -18 0 -6 -25 -6 -25 -24 0 -25 0 -17 -17 -17 -18 -24 3 -23 3 0 -15 0 -16 -14 0 -15 0 -6 10 -6 10 -8 0 -8 0 -11 -24 -11 -25 -33 -3 -33 -3 -3 -27 -3 -28 -10 0 -9 0 0 9 0 9 -25 16 -26 17 -10 -7 -11 -6 11 -11 11 -11 0 -13 0 -13 -10 0 -10 0 -17 20 -17 20 -12 0 -12 0 -6 -15 -5 -15 -35 0 -34 0 -30 17 -31 18 -43 -14 -43 -13 -68 -8 -69 -9 -12 -10 -13 -11 -161 -1 -161 0 -10 -13 -10 -12 7 -10 7 -10 16 -6 17 -6 -5 -26 -5 -26 -8 0 -7 0 -18 20 -18 20 -19 0 -18 0 0 -10 0 -10 -15 0 -15 0 0 10 0 10 10 0 10 0 0 10 0 10 -26 -6 -26 -7 -24 13 -24 13 -18 -16 -19 -17 -9 0 -10 0 -17 20 -17 20 -49 0 -49 0 -5 -20 -5 -20 -10 0 -9 0 -24 21 -24 21 -40 -6 -41 -5 -31 29 -32 30 -14 0 -14 0 -6 -6 -6 -6 21 -18 21 -17 -16 -6 -15 -6 -23 20 -22 19 -9 0 -10 0 -44 45 -43 45 -15 0 -15 0 -6 -10 -6 -10 11 -19 10 -20 -12 -7 -12 -8 -58 -1 -59 -2 -5 9 -5 8 -175 0 -175 0 -5 15 -6 15 -104 0 -104 0 0 9 0 10 -54 6 -55 7 -6 29 -7 29 -25 48 -25 47 -41 43 -42 42 -12 -4 -12 -5 -8 13 -8 14 -58 31 -57 31 -17 0 -16 0 -12 -16 -12 -17 -26 7 -27 6 0 10 0 9 25 3 26 3 0 10 0 10 -28 3 -27 4 -11 15 -11 15 -19 -3 -19 -4 2 -10 1 -10 26 -3 25 -3 0 -15 0 -16 -42 3 -43 2 -37 -1 -38 -2 0 -10 0 -11 24 -25 23 -26 17 17 16 16 0 -4 0 -4 -11 -32 -11 -31 -7 0 -7 0 -22 30 -22 29 0 5 0 6 -37 37 -36 38 -18 -3 -17 -3 -7 31 -7 30 -12 0 -12 0 -12 -12 -12 -12 0 -18 0 -18 28 -29 27 -28 32 -7 32 -7 27 -37 27 -37 57 -58 57 -57 -6 -1 -6 -1 -55 2 -55 2 -45 15 -45 15 -55 1 -55 2 -3 23 -3 22 -14 0 -13 0 -6 -15 -5 -15 -16 0 -16 0 -29 30 -29 30 -11 0 -10 0 0 -11 0 -12 18 -13 17 -13 -17 -1 -18 0 0 10 0 10 -15 0 -15 0 0 -10 0 -10 -25 -6 -25 -6 -15 12 -15 12 0 18 0 18 -22 6 -23 5 12 12 11 11 20 -6 21 -7 3 -22 3 -22 28 -3 27 -3 0 14 0 15 -17 7 -18 6 17 13 16 12 4 24 3 25 28 3 27 3 0 15 0 14 -25 0 -25 0 0 10 0 10 1 6 1 5 -16 24 -16 24 10 6 10 6 43 -6 42 -6 20 20 20 21 43 42 42 41 0 14 0 14 15 5 15 6 0 18 0 18 15 12 15 12 0 29 0 29 13 0 12 -1 17 -23 16 -23 -29 -24 -29 -24 0 -16 0 -16 -20 -23 -20 -23 0 -12 0 -11 12 -12 12 -12 13 11 13 11 0 12 1 11 17 21 18 22 34 7 33 7 24 26 23 25 0 10 0 9 18 -7 17 -7 15 -3 15 -3 3 -1 2 -1 -16 -25 -16 -25 6 -15 5 -15 21 0 20 0 0 25 0 26 15 5 15 6 0 14 0 15 -15 5 -15 6 0 13 0 14 9 5 9 6 30 -16 31 -15 -32 -47 -33 -47 -7 -18 -7 -17 -12 -4 -13 -4 -19 -6 -19 -7 11 -11 12 -12 0 -28 0 -28 30 0 30 0 0 13 0 12 20 38 20 37 0 20 0 21 15 5 15 6 0 12 0 12 18 34 17 35 17 -3 16 -3 7 -45 6 -45 -14 -23 -15 -22 18 -22 18 -22 10 0 10 0 7 18 6 17 11 -18 10 -18 -6 -15 -5 -14 -26 0 -25 0 0 -14 0 -15 28 -3 27 -3 -3 -36 -3 -36 14 -11 14 -12 18 6 17 7 -6 26 -7 26 -2 15 -2 15 38 5 38 5 1 10 2 10 -29 5 -29 5 -12 24 -13 24 -15 9 -16 9 5 10 6 9 9 0 9 0 18 -30 17 -30 38 0 37 0 6 10 6 10 -23 9 -24 9 -13 16 -13 16 -15 0 -14 0 6 10 6 10 20 0 21 0 17 -22 18 -21 11 7 12 7 0 14 0 14 -15 9 -16 8 6 16 6 16 25 6 24 6 0 15 0 14 -22 7 -21 6 22 18 23 17 -4 19 -3 19 -17 3 -16 3 -6 -19 -6 -19 -25 5 -25 4 0 -11 0 -11 -15 0 -15 0 0 7 0 6 17 19 16 18 18 0 17 0 31 18 31 17 0 10 0 10 -36 24 -35 24 13 9 13 8 28 -6 28 -6 12 11 13 10 13 -9 14 -8 14 5 13 5 0 14 0 14 -7 1 -8 1 -55 3 -55 4 -5 1 -5 1 23 9 22 9 0 21 0 20 -27 0 -28 1 28 15 27 15 0 23 0 24 -16 6 -17 6 18 20 17 19 -7 11 -7 12 -20 -5 -20 -6 -20 12 -19 12 -19 -25 -20 -25 0 -17 0 -18 24 0 25 0 6 -10 6 -10 -6 -20 -6 -20 -18 21 -18 22 -11 -7 -12 -7 0 -14 0 -14 18 -5 17 -6 13 -30 13 -30 -6 -10 -7 -11 -51 3 -52 3 -3 -22 -3 -23 15 0 15 0 3 -22 3 -23 29 -3 29 -4 -5 25 -5 25 19 -11 18 -12 0 -6 0 -6 -16 -31 -15 -31 -20 12 -20 12 -25 -28 -24 -28 -10 6 -10 6 0 14 0 14 20 11 21 11 -7 10 -6 10 -37 -1 -36 -2 -17 1 -18 1 0 15 0 15 10 0 10 0 0 20 0 20 -27 1 -28 1 28 10 27 10 0 29 0 29 -10 0 -10 0 0 53 0 54 -20 18 -20 18 0 19 0 18 -14 0 -13 0 -7 -42 -7 -43 15 -11 16 -11 1 -19 2 -19 -1 -17 -2 -18 -10 0 -10 0 0 30 0 30 -15 0 -16 0 -6 -16 -6 -15 23 -31 22 -30 -13 -24 -13 -25 -23 -5 -23 -6 0 -19 0 -19 -12 -20 -13 -20 19 -13 19 -14 -7 -11 -7 -12 -12 0 -12 0 -14 33 -14 32 -11 7 -10 7 16 18 17 18 -8 15 -8 15 -7 45 -7 45 -26 27 -27 28 -10 0 -11 0 -14 -9 -13 -9 18 -41 18 -41 8 0 8 0 0 -15 0 -15 -10 0 -10 0 -6 -25 -6 -25 12 -15 11 -14 -17 -37 -17 -36 11 -19 12 -19 0 -10 0 -10 -19 0 -19 0 -12 15 -12 14 7 61 7 60 9 6 9 5 -5 10 -6 9 -19 0 -19 0 -6 20 -6 20 -10 0 -9 0 0 19 0 18 -54 57 -54 56 -16 0 -15 0 -9 16 -9 16 -24 -4 -24 -3 -2 -15 -3 -15 36 -22 35 -23 10 0 9 0 20 -17 20 -17 0 -7 0 -7 -22 -6 -23 -5 13 -13 12 -12 21 13 21 13 10 -10 10 -10 -21 -21 -21 -21 0 -9 0 -9 15 -6 14 -5 9 16 9 16 12 -7 11 -7 0 -9 0 -9 -22 -12 -23 -13 -37 3 -38 2 0 -16 0 -15 30 0 30 0 0 -12 0 -13 -28 -13 -27 -13 -22 26 -22 25 -11 0 -10 0 0 -15 0 -15 8 0 7 0 30 -27 29 -28 21 -10 20 -11 3 -16 3 -17 -20 -20 -21 -21 -40 0 -40 0 0 15 0 15 -25 0 -25 0 0 -14 0 -14 20 -5 20 -5 0 -10 0 -11 -20 -6 -20 -6 0 -9 0 -8 18 -22 18 -23 22 7 22 7 0 15 0 15 -15 5 -15 6 0 9 0 9 15 0 15 0 0 -10 0 -9 19 -11 20 -10 14 6 14 5 16 37 16 37 13 17 12 17 -12 46 -12 46 30 29 30 29 0 13 0 13 8 -12 8 -12 -2 -61 -1 -61 -12 -12 -11 -11 0 -22 0 -22 -15 -12 -15 -12 0 -16 0 -15 -55 -54 -56 -53 -31 0 -31 0 -17 -15 -17 -15 -73 -3 -73 -2 -5 -12 -4 -13 22 0 21 0 24 -16 25 -16 0 -14 0 -14 -15 0 -14 0 -10 18 -10 17 -104 -3 -105 -3 -6 10 -6 10 12 7 12 8 63 -2 63 -3 0 11 0 10 -37 1 -38 1 -14 2 -14 1 -4 12 -4 12 75 74 76 73 0 13 0 13 15 -12 15 -12 0 -12 0 -12 -45 -34 -45 -34 0 -7 0 -7 16 -6 17 -6 18 16 19 17 18 -16 19 -17 17 0 17 0 6 17 7 17 -10 3 -9 3 -15 10 -15 10 19 15 19 14 -17 7 -17 7 6 27 6 27 -21 6 -22 6 7 33 7 33 9 10 9 9 0 36 0 36 -12 12 -12 12 3 46 3 45 -16 24 -16 24 0 20 0 20 -15 15 -15 15 0 9 0 10 -27 18 -28 19 -24 12 -23 13 -9 0 -9 0 0 -10 0 -10 38 -39 37 -40 13 -15 12 -15 0 -24 0 -25 14 -11 13 -11 6 -51 6 -52 17 -19 17 -18 -22 -46 -23 -45 6 -16 7 -16 -25 -38 -25 -37 -60 -46 -59 -46 -17 0 -17 0 -25 -20 -26 -20 -52 6 -52 6 -6 -16 -6 -16 -100 0 -100 0 -15 15 -15 15 -6 0 -7 0 -31 14 -32 15 -47 20 -47 21 -15 0 -15 0 -6 10 -6 10 -22 0 -22 0 -13 20 -12 20 -20 0 -21 0 -22 14 -22 14 -57 -5 -58 -5 0 -24 0 -24 -15 0 -16 0 -21 36 -21 35 -15 -15 -15 -14 -21 11 -21 12 -8 12 -8 13 -25 0 -26 0 -5 20 -5 20 -17 -2 -16 -3 3 16 2 16 -25 -5 -25 -4 0 11 0 11 -15 0 -15 0 0 -10 0 -10 -15 0 -15 0 0 10 0 10 15 0 15 0 0 9 0 9 -30 32 -30 32 0 6 0 5 17 19 16 18 9 0 8 0 0 -20 0 -20 20 -20 20 -20 24 0 24 0 28 -15 29 -15 28 0 28 0 15 -15 15 -15 30 0 30 0 15 -15 15 -15 48 0 47 0 10 -9 9 -10 60 -11 60 -11 44 -8 44 -8 14 -19 13 -18 0 -7 0 -8 22 -7 22 -7 14 -13 13 -14 19 0 18 0 4 -11 4 -12 54 -1 53 -2 29 28 29 28 5 0 5 0 23 -25 23 -25 55 0 54 0 12 12 13 13 8 -14 9 -14 62 19 61 18 35 34 35 34 -5 15 -6 14 13 22 12 22 18 24 17 24 0 17 0 18 -22 15 -23 16 14 10 15 9 2 45 3 44 -40 21 -39 21 0 -10 0 -9 -15 0 -15 0 0 15 0 15 10 0 10 0 0 19 0 20 -11 6 -10 7 -6 -21 -5 -20 -22 -8 -21 -7 -22 3 -23 2 0 -13 1 -13 25 -19 26 -19 48 6 48 6 15 -12 15 -12 4 -15 5 -15 -9 -19 -10 -18 -30 28 -29 29 -13 -17 -13 -18 -11 0 -10 0 -6 15 -5 15 -26 0 -26 0 3 -17 3 -17 25 -7 25 -7 -12 -1 -13 -1 0 -18 0 -18 12 -12 11 -11 -16 -7 -17 -6 0 -14 0 -14 -49 0 -50 0 -6 -11 -7 -10 15 -17 14 -17 6 -17 6 -18 21 0 20 0 0 -16 0 -15 -27 3 -28 3 -15 32 -15 33 -7 0 -7 0 -27 25 -26 25 -34 6 -34 6 0 14 0 14 -15 0 -16 0 -5 -14 -6 -14 21 -21 21 -21 19 0 20 0 25 -24 26 -23 0 -17 0 -16 -15 0 -16 0 -5 -15 -6 -15 -14 0 -14 0 0 10 0 11 15 5 15 6 0 19 0 19 -15 0 -15 0 0 -16 0 -17 -17 -14 -18 -14 -21 -15 -21 -15 -43 7 -42 7 -24 26 -24 26 -15 16 -15 16 0 16 0 15 -9 4 -8 3 -38 70 -37 69 -50 48 -50 48 -7 0 -6 0 -49 35 -50 35 -12 0 -12 0 -4 12 -5 13 -31 -3 -32 -2 0 10 0 11 -47 20 -48 21 -90 3 -90 3 -7 1 -8 1 0 11 0 11 25 -4 25 -5 11 13 11 13 -7 11 -6 10 -22 1 -22 1 18 5 19 5 29 -12 30 -13 19 18 20 18 0 14 0 14 17 -3 17 -3 6 -25 6 -25 6 23 6 22 11 0 11 0 6 -25 6 -25 14 0 14 0 0 24 0 25 20 6 20 6 0 15 0 14 13 0 12 0 13 -21 13 -20 -21 -35 -22 -34 17 -6 16 -7 13 18 13 18 18 -7 17 -6 -7 22 -7 23 0 27 1 27 -14 -6 -15 -5 0 6 0 6 24 10 25 9 30 -15 31 -15 0 -10 0 -9 15 0 15 0 0 10 0 10 15 0 15 0 0 -10 0 -10 15 0 15 0 0 15 0 15 -9 0 -10 0 -6 20 -6 20 -15 0 -14 0 0 10 0 10 12 0 11 0 19 -17 18 -16 0 -9 0 -8 20 -20 20 -20 10 0 10 0 0 12 0 11 -16 18 -16 18 6 16 6 17 33 -28 32 -27 -3 -12 -2 -13 16 -6 16 -6 9 6 9 5 0 8 0 9 -19 5 -20 5 6 21 5 21 9 0 8 0 9 -17 10 -16 16 6 16 6 0 25 0 25 19 11 20 10 6 -20 6 -20 11 0 10 0 20 25 19 25 15 0 14 0 0 -8 0 -8 -12 -13 -13 -13 25 4 25 3 3 25 4 25 8 9 8 8 7 -22 7 -22 21 -24 21 -24 12 0 13 0 11 -20 11 -20 14 0 15 0 0 10 0 10 25 22 25 22 0 17 0 18 -21 6 -21 7 -9 -13 -9 -14 0 -12 0 -13 -16 0 -16 0 6 16 6 16 6 23 6 24 31 -6 32 -6 18 -15 17 -15 0 -14 0 -13 -10 0 -11 0 2 -12 2 -13 -7 -27 -8 -28 -19 0 -19 0 0 -14 0 -14 17 -6 17 -7 12 15 11 16 12 0 11 0 12 20 13 20 20 0 20 0 42 38 41 37 -11 19 -12 19 13 4 12 5 0 14 0 14 -10 0 -10 0 0 10 0 10 20 0 20 0 0 -17 0 -16 18 -20 17 -20 -12 -4 -13 -5 0 -14 0 -14 10 0 10 0 0 -14 0 -14 -11 -4 -11 -4 9 -44 9 -45 24 0 25 0 3 19 4 19 -23 19 -24 18 18 14 17 13 0 11 0 10 -17 7 -18 7 23 9 22 8 0 16 0 16 -15 5 -15 6 0 29 0 29 10 0 10 0 0 -19 0 -20 21 -6 21 -7 29 28 29 28 0 20 1 21 13 -17 13 -18 21 0 21 0 10 -18 10 -19 -11 -11 -11 -11 7 -25 6 -26 15 0 15 0 0 10 0 10 15 0 15 0 0 -10 0 -10 15 0 15 0 0 13 0 13 -20 22 -21 22 -15 0 -15 0 11 20 11 20 -16 6 -15 6 0 8 0 8 33 4 32 5 18 8 17 7 0 -20 0 -20 -20 -5 -20 -5 0 -19 0 -19 12 -12 12 -12 23 0 24 0 6 15 6 16 -19 15 -19 15 25 -3 24 -3 6 -25 6 -25 19 0 19 0 7 25 7 25 7 -22 7 -23 14 0 14 0 0 25 0 25 9 0 9 0 16 6 16 6 0 -16 0 -16 -10 0 -10 0 0 -10 0 -10 20 -20 20 -20 10 0 10 0 0 14 0 14 -12 5 -13 4 18 21 18 20 -20 14 -21 15 5 5 5 5 30 -5 31 -4 -5 -17 -5 -16 19 -24 20 -23 17 7 18 7 -22 15 -23 15 0 14 0 14 6 0 5 0 22 -11 21 -12 20 -19 21 -20 20 -8 20 -8 8 5 7 4 0 14 0 14 -19 6 -19 6 0 34 0 35 11 0 11 0 31 -30 32 -31 16 7 17 6 0 13 0 13 -15 6 -15 6 6 25 6 25 -12 15 -12 14 4 18 4 18 19 -37 19 -38 9 0 8 0 -6 -21 -7 -20 19 -14 18 -14 13 -1 12 0 0 18 0 17 25 23 25 24 4 -14 4 -13 6 -17 5 -18 21 0 20 0 0 15 0 15 -10 0 -10 0 0 23 0 23 20 17 21 18 9 -6 10 -6 0 -14 0 -13 35 -12 35 -11 22 7 23 7 7 10 7 11 28 1 28 0 3 29 4 29 13 14 14 13 10 0 11 0 0 -10 0 -10 -15 0 -15 0 0 -7 0 -6 17 -19 16 -18 -1 -35 -1 -34 8 -5 9 -6 12 15 12 14 -8 12 -7 12 0 36 1 36 1 13 1 12 9 0 9 0 6 -25 6 -24 36 -7 36 -7 25 27 25 27 -5 20 -5 19 25 0 25 0 -13 -16 -13 -16 12 -18 11 -18 -22 -16 -22 -17 -14 -8 -14 -9 7 -18 8 -19 15 23 15 22 20 0 19 0 5 -15 6 -15 18 0 19 0 6 10 6 10 -25 10 -26 10 0 12 0 13 50 1 51 0 17 17 17 17 -12 20 -13 19 53 4 52 4 54 -4 54 -5 13 -5z m517 2 l-2 -10 -18 -4 -18 -3 -8 -14 -8 -14 -9 0 -10 0 0 12 0 11 17 19 17 19 20 -3 21 -3 -2 -10z m340 8 l3 -8 -23 -24 -23 -24 -6 18 -7 18 18 13 19 14 7 0 8 0 4 -7z m-1121 -28 l-30 -25 -13 0 -14 0 -12 25 -11 25 55 0 55 0 -30 -25z m-523 -11 l3 -3 -6 -17 -6 -17 -20 18 -19 17 -25 -6 -24 -6 -17 6 -17 7 12 7 11 7 52 -5 52 -5 4 -3z m1501 -29 l0 -5 -17 -20 -17 -20 -13 0 -13 0 0 15 0 15 15 0 15 0 0 10 0 10 15 0 15 0 0 -5z m-1595 -36 l-6 -9 -15 0 -14 0 0 9 0 9 13 5 12 4 8 -4 7 -4 -5 -10z m180 6 l0 -10 -37 -3 -38 -3 0 9 0 9 7 7 7 7 31 -3 30 -3 0 -10z m-265 -19 l0 -25 -10 -6 -10 -6 0 15 0 14 -6 16 -6 16 16 0 16 0 0 -24z m-160 -1 l0 -15 -15 0 -15 0 0 8 0 9 7 6 6 7 9 0 8 0 0 -15z m-120 -1 l0 -7 -17 -12 -16 -12 6 -17 6 -16 15 0 15 0 11 20 11 20 19 0 20 0 0 -8 0 -8 -19 -16 -19 -16 -21 -11 -20 -11 -15 0 -15 0 -3 23 -3 22 -27 0 -28 -1 0 26 1 25 14 -19 14 -19 16 6 15 6 0 16 0 15 20 0 20 0 0 -6z m-146 -26 l6 -23 0 -12 0 -13 -15 0 -15 0 0 35 0 35 9 0 9 0 6 -22z m-119 -8 l6 -10 -21 0 -21 0 6 10 6 10 9 0 9 0 6 -10z m28 -62 l-5 -28 -19 0 -19 0 0 15 0 16 15 5 15 6 0 16 0 16 9 -9 9 -10 -5 -27z m309 -3 l0 -9 -11 -4 -11 -4 0 17 0 17 11 -4 11 -3 0 -10z m5079 -74 l21 -19 -12 -7 -11 -7 -20 18 -19 17 0 9 0 8 10 0 11 0 20 -19z m-76 -34 l0 -17 -10 -1 -9 0 -8 21 -8 21 18 -3 17 -3 0 -18z m-5865 -2 l0 -14 22 -21 22 -20 -16 0 -16 0 -12 -15 -12 -15 -14 0 -14 0 6 27 7 26 -19 14 -19 14 15 9 15 10 18 0 17 0 0 -15z m3555 -25 l-7 -12 -10 10 -10 10 7 12 7 12 10 -10 10 -10 -7 -12z m2255 -12 l0 -18 -9 0 -10 0 -6 10 -6 10 6 21 7 22 9 -14 9 -14 0 -17z m215 33 l5 -10 -10 -6 -10 -6 -10 6 -10 6 5 10 6 9 9 0 9 0 6 -9z m-6245 -27 l0 -14 -15 0 -15 0 0 4 0 4 6 16 6 16 9 -6 9 -5 0 -15z m6164 -17 l10 -16 -24 -26 -23 -25 -44 0 -44 0 -15 -15 -15 -15 -19 0 -18 0 -6 -15 -5 -15 -26 0 -26 0 3 18 3 17 23 3 22 3 0 14 0 14 10 6 10 6 20 -11 20 -11 6 16 6 15 23 0 23 0 31 6 31 7 -11 13 -11 13 7 11 7 11 11 -4 11 -3 10 -17z m156 8 l0 -15 -14 0 -15 0 -5 9 -6 9 12 5 13 5 8 1 7 1 0 -15z m-6661 -34 l-10 -3 -6 5 -5 6 7 11 8 12 8 -13 8 -14 -10 -4z m-192 4 l3 -1 -13 -18 -12 -17 -38 16 -38 16 6 9 6 10 42 -6 42 -7 2 -2z m-287 -5 l0 -10 -19 0 -20 0 -6 10 -6 10 25 0 26 0 0 -10z m100 -47 l0 -13 -15 0 -15 0 0 18 0 19 7 6 7 7 8 -12 8 -13 0 -12z m64 31 l16 -6 0 -14 0 -14 -20 0 -20 0 0 20 0 20 4 0 4 0 16 -6z m-134 -39 l0 -15 -15 0 -15 0 0 15 0 15 15 0 15 0 0 -15z m6610 0 l0 -15 -14 0 -15 0 -5 9 -5 8 6 7 6 6 14 0 13 0 0 -15z m-6780 -26 l0 -9 -15 0 -15 0 0 8 0 9 6 6 7 6 8 -5 9 -5 0 -10z m7185 -10 l-6 -9 -15 0 -14 0 0 20 0 21 20 -11 21 -11 -6 -10z m-6977 3 l4 -12 -16 0 -16 0 0 16 0 16 12 -4 12 -4 4 -12z m6420 -1 l5 -13 -14 4 -13 4 -4 13 -4 14 13 -5 13 -4 4 -13z m220 -2 l13 -21 -5 -6 -6 -5 0 11 0 12 -18 0 -18 0 -11 -31 -12 -31 -28 6 -28 7 -12 16 -12 16 5 8 5 9 33 0 34 0 12 15 12 15 12 0 11 0 13 -21z m262 13 l0 -9 -6 -6 -7 -6 -9 5 -8 5 5 10 6 9 10 0 9 0 0 -8z m-1510 -52 l0 -50 -22 0 -22 0 20 14 19 15 -12 20 -13 20 6 16 6 15 9 0 9 0 0 -50z m-5555 10 l-6 -10 -15 0 -14 0 0 10 0 10 21 0 20 0 -6 -10z m5705 -10 l0 -20 -26 0 -26 0 23 20 24 19 3 1 2 0 0 -20z m914 0 l12 0 22 -30 23 -30 17 0 17 0 15 -10 14 -9 -18 -20 -19 -21 -8 0 -8 0 -18 30 -17 30 -18 0 -18 0 -10 26 -10 25 1 17 1 17 5 -12 5 -13 12 0z m328 10 l3 -10 52 -3 53 -3 6 -6 6 -6 -7 -21 -6 -21 -10 0 -9 0 0 15 0 15 -10 0 -11 0 -5 -15 -6 -15 -13 0 -13 0 -7 18 -6 17 -10 -17 -10 -18 -14 0 -15 0 0 15 0 16 15 5 15 6 0 9 0 9 -14 0 -15 0 -6 10 -6 10 20 0 19 0 4 -10z m-62 -39 l0 -20 10 -6 10 -6 0 -11 0 -10 -15 12 -15 12 -14 -12 -15 -12 -22 4 -23 3 33 33 33 32 9 0 9 0 0 -19z m-296 -9 l5 -9 -29 -21 -29 -22 -15 6 -16 6 -6 -16 -6 -16 -30 0 -29 0 18 25 18 25 22 -5 22 -5 11 20 11 20 24 0 24 0 5 -8z m203 -7 l5 -16 -5 -5 -5 -6 -21 7 -21 6 0 15 0 14 20 0 21 0 6 -15z m-863 -25 l38 0 -12 -15 -13 -15 -12 10 -13 11 -40 -7 -41 -6 -16 6 -16 6 7 11 7 11 36 -6 36 -6 39 0z m1096 -30 l0 -20 -15 0 -15 0 0 13 0 14 7 6 6 7 9 0 8 0 0 -20z m-600 -26 l0 -14 -5 0 -4 0 -11 20 -10 20 15 -6 15 -6 0 -14z m-118 -9 l0 -9 -11 -4 -11 -4 0 17 0 17 11 -4 11 -3 0 -10z m68 0 l0 -15 -9 0 -10 0 -5 9 -5 8 6 7 6 6 9 0 8 0 0 -15z m225 0 l0 -10 -34 -3 -34 -3 -23 -16 -23 -15 -23 4 -23 3 2 10 2 10 27 3 27 4 15 14 14 15 37 -3 36 -3 0 -10z m263 -1 l9 -17 24 17 23 16 8 0 8 0 0 -20 0 -20 8 0 7 0 0 -35 0 -35 -13 0 -14 0 -11 30 -11 30 -17 0 -17 0 -12 -16 -13 -15 21 -6 22 -5 0 -15 0 -16 -36 6 -36 6 -7 6 -6 7 17 9 16 9 -5 19 -5 20 -15 5 -14 6 -30 -22 -29 -22 0 -7 0 -8 17 -10 17 -9 -39 0 -40 0 -46 -6 -45 -5 -15 -3 -14 -3 0 19 0 19 17 11 17 11 15 -20 15 -20 6 18 7 17 -5 15 -6 14 11 7 11 7 12 -16 12 -17 15 0 14 0 29 30 29 30 42 0 43 0 9 -16z m150 -61 l4 -13 -21 0 -21 0 0 16 0 15 17 -3 16 -3 5 -12z m-493 -33 l0 -15 -25 3 -25 4 -4 3 -3 4 7 11 7 11 21 -3 22 -3 0 -15z m-65 -25 l0 -15 -25 0 -25 0 0 8 0 9 7 6 6 7 19 0 18 0 0 -15z m55 -60 l0 -10 -23 -3 -23 -4 -15 6 -15 6 6 10 7 11 31 -3 32 -3 0 -10z m-77 -27 l-4 -12 -12 -4 -12 -4 0 16 0 16 16 0 16 0 -4 -12z m519 -13 l11 -25 -6 0 -7 1 -17 13 -18 13 0 12 0 11 13 0 12 0 12 -25z m-5780 -15 l-2 -5 -24 -52 -23 -53 -14 0 -14 0 0 25 0 26 15 5 15 6 0 32 0 33 6 6 6 6 19 -12 19 -12 -3 -5z m823 -11 l0 -9 -14 0 -14 0 -6 -16 -6 -15 -10 6 -11 7 23 23 22 23 8 -4 8 -5 0 -10z m-785 -39 l0 -23 -12 -4 -13 -5 0 32 0 32 13 -4 12 -5 0 -23z m905 -37 l0 -23 15 0 15 0 0 -15 0 -15 -10 0 -11 0 -5 15 -6 15 -13 0 -13 0 -5 -20 -5 -20 -16 0 -16 0 0 20 0 20 20 0 20 0 0 11 0 12 -17 13 -18 13 25 9 25 9 7 -11 8 -11 0 -22z m4800 32 l0 -16 -17 -6 -18 -7 -7 -10 -8 -11 0 17 0 16 6 16 6 16 19 0 19 0 0 -15z m-4917 -24 l5 -20 -14 -12 -13 -11 -7 26 -6 25 7 11 6 10 8 -5 9 -5 5 -19z m-813 -32 l0 -21 -21 -5 -20 -6 6 -24 6 -25 -13 5 -13 4 2 32 1 32 12 14 12 15 14 0 14 0 0 -21z m693 1 l-5 -20 -9 0 -9 0 0 20 0 20 14 0 14 0 -5 -20z m4869 -10 l22 -30 18 0 18 0 0 15 0 15 5 0 5 0 32 -27 32 -28 19 -19 20 -19 -24 -13 -24 -13 -9 20 -9 19 -14 0 -13 0 0 -15 0 -15 -16 0 -16 0 5 18 5 17 3 15 4 15 -34 0 -34 0 -4 13 -5 12 -58 0 -58 0 -5 -14 -6 -15 -33 3 -33 2 -32 20 -33 21 7 6 6 7 14 0 13 0 0 -14 0 -14 27 -5 27 -5 23 9 23 9 0 10 0 10 28 1 27 0 20 9 20 9 7 0 7 1 23 -30z m-6315 -7 l4 -11 -17 -6 -17 -6 -5 4 -4 5 6 16 6 17 12 -4 12 -4 3 -11z m653 3 l0 -14 -18 -4 -18 -5 -23 8 -22 9 6 10 6 10 35 0 34 0 0 -14z m1123 -6 l17 -20 0 -10 0 -10 -22 3 -23 2 0 -20 0 -20 20 3 20 4 5 8 5 7 23 7 22 7 0 10 0 9 20 -12 20 -13 0 -13 0 -13 -21 6 -20 7 -25 -27 -25 -27 -15 13 -16 13 -18 -23 -17 -24 -5 9 -5 9 -1 48 -2 48 15 5 15 6 0 14 0 14 8 0 8 0 17 -20z m4699 5 l0 -9 -11 -4 -11 -4 0 17 0 17 11 -4 11 -3 0 -10z m-469 -30 l2 -10 -17 -3 -18 -3 0 16 0 16 16 -3 15 -3 2 -10z m-5343 -30 l0 -15 -9 0 -10 0 -5 9 -5 8 6 7 6 6 9 0 8 0 0 -15z m5398 -7 l12 -12 35 3 35 3 6 -16 6 -16 33 0 33 0 12 -15 12 -15 26 0 25 0 13 17 12 18 31 -23 30 -22 19 0 20 0 5 -32 5 -33 -8 -8 -8 -9 -21 7 -21 6 0 20 0 20 -16 6 -16 6 -10 -16 -9 -17 -18 0 -19 0 -12 15 -12 15 -12 0 -11 0 -42 18 -43 17 0 13 0 12 -6 0 -5 0 -19 -10 -18 -10 -12 15 -12 15 -33 0 -33 0 -15 -22 -15 -23 -7 18 -7 17 6 15 5 15 20 0 20 0 6 10 6 10 8 0 7 0 12 -12z m204 -23 l0 -9 -11 -4 -11 -4 0 17 0 17 11 -4 11 -3 0 -10z m-6414 -36 l4 11 23 0 23 0 6 -15 5 -15 31 0 30 0 0 -22 0 -23 8 -13 9 -13 11 26 12 25 9 0 10 0 6 -21 7 -21 29 6 29 5 10 -20 11 -20 30 6 29 7 0 -10 0 -10 36 -21 35 -21 17 0 17 -1 23 -18 22 -19 0 -22 0 -21 -17 3 -18 3 -3 22 -3 21 -49 7 -49 7 -5 14 -5 14 -21 0 -20 0 0 -15 0 -15 -19 0 -19 0 -28 15 -29 15 -17 0 -17 0 -8 13 -8 13 -48 32 -48 32 -10 0 -9 0 0 19 0 20 -9 6 -10 5 -6 -10 -6 -10 -30 0 -29 0 0 4 0 4 6 16 6 16 21 -12 21 -11 4 12z m6152 -34 l21 7 6 -21 5 -21 28 0 28 0 31 -26 31 -26 0 -19 0 -19 -8 0 -9 0 -27 33 -28 34 -24 -5 -24 -4 0 16 0 16 -20 0 -20 0 0 -14 0 -14 15 -6 15 -5 0 -11 0 -10 -15 0 -16 0 -31 32 -32 33 -23 -3 -23 -3 0 15 0 16 29 0 29 0 7 18 6 17 14 -18 14 -19 21 7z m180 -20 l0 -15 -9 0 -10 0 -5 9 -5 8 6 7 6 6 9 0 8 0 0 -15z m341 -42 l19 -5 0 -10 0 -10 -20 -5 -20 -5 0 -18 0 -19 17 -17 17 -16 -19 -14 -19 -14 -11 3 -10 4 2 24 2 24 6 27 7 28 -26 10 -26 10 0 7 0 7 28 22 27 22 3 -25 4 -25 19 -5z m-286 18 l5 -10 -10 -6 -10 -6 -10 6 -10 6 5 10 6 9 9 0 9 0 6 -9z m-5577 -38 l-3 -18 -10 2 -10 2 -3 15 -3 16 16 0 16 0 -3 -17z m5249 -23 l-11 -29 -7 11 -8 12 10 18 10 18 8 0 9 0 -11 -30z m-5312 10 l7 -11 -26 -26 -26 -25 -6 16 -6 16 -20 0 -19 0 -10 -30 -11 -30 -14 0 -14 0 0 18 0 18 13 27 12 27 33 0 32 0 0 -15 0 -15 15 0 15 0 0 20 0 20 9 0 10 0 6 -10z m5725 -5 l0 -16 16 -6 17 -6 14 19 14 19 5 -22 6 -21 25 1 26 2 3 -10 3 -10 -36 -18 -37 -19 -12 16 -11 16 -9 0 -10 0 -16 19 -16 19 -13 5 -14 5 15 11 15 11 8 0 7 0 0 -15z m-100 -16 l0 -9 25 0 25 0 0 -15 0 -15 15 0 15 0 0 -30 0 -30 7 0 6 0 19 16 18 17 6 -17 6 -16 14 0 14 0 0 -15 0 -15 -14 0 -14 0 -6 16 -6 15 -10 -6 -10 -6 12 -19 12 -19 -7 -7 -7 -7 -30 31 -30 32 -14 0 -15 0 -5 9 -6 9 15 6 15 5 0 16 0 15 -12 0 -11 0 -16 -14 -16 -15 -15 9 -14 8 12 15 12 14 -7 6 -6 7 -14 -12 -13 -11 -7 7 -6 6 17 19 18 20 14 -6 14 -5 0 -9z m-5818 -26 l18 -16 0 -14 0 -13 10 0 10 0 0 -10 0 -10 -40 0 -40 0 0 9 0 10 10 6 10 6 0 8 0 9 -21 5 -21 6 7 10 6 11 16 0 16 0 19 -17z m130 -28 l0 -9 -11 -4 -11 -4 0 17 0 17 11 -4 11 -3 0 -10z m5408 0 l0 -15 -15 0 -15 0 0 15 0 15 15 0 15 0 0 -15z m186 -7 l24 -23 0 -7 0 -8 -14 0 -14 0 -5 -12 -4 -13 -9 9 -9 9 13 4 12 5 0 14 0 14 -15 0 -15 0 0 -10 0 -10 -13 0 -12 0 -12 19 -12 20 22 4 22 4 9 2 8 1 24 -22z m-5491 3 l5 -10 112 0 111 0 10 -10 11 -11 -5 -5 -6 -5 -45 -6 -46 -6 -86 7 -86 7 0 24 0 24 9 0 10 0 6 -9z m5823 -23 l12 -12 0 -13 0 -13 -25 16 -25 16 0 9 0 9 13 0 13 0 12 -12z m-5852 -33 l6 -15 23 0 24 0 5 -9 6 -9 -16 -6 -16 -6 -44 0 -45 0 -5 15 -6 15 -24 0 -24 0 0 15 0 15 55 0 56 0 5 -15z m354 -22 l0 -25 -22 6 -23 6 -17 0 -18 0 0 22 0 21 19 -17 20 -18 12 20 13 21 8 -5 8 -5 0 -26z m5085 -29 l-20 -15 -3 22 -4 22 -8 -13 -8 -13 -16 6 -16 6 0 11 0 10 20 0 20 0 0 16 0 17 27 -28 28 -27 -20 -14z m156 56 l9 0 0 -25 0 -25 -13 0 -13 0 -19 14 -18 13 6 18 7 17 16 -6 16 -6 9 0z m330 -13 l-11 -11 -6 7 -6 6 7 10 6 11 11 -6 10 -6 -11 -11z m-6053 -28 l4 -9 23 0 24 0 6 -10 6 -10 -13 -1 -13 -1 -39 2 -39 2 -16 8 -16 9 -18 5 -18 6 5 9 6 9 47 -6 48 -5 3 -8z m1194 6 l0 -9 -11 -4 -11 -4 0 17 0 17 11 -4 11 -3 0 -10z m4847 -25 l20 -39 -10 -6 -10 -7 -12 10 -12 10 -32 6 -31 7 -21 -13 -20 -12 -6 6 -6 6 16 31 16 31 9 0 9 0 6 -10 6 -10 19 0 18 0 6 15 5 15 5 0 4 0 21 -40z m-251 -3 l3 -17 -20 0 -21 0 0 13 0 14 7 7 7 6 10 -3 11 -4 3 -16z m-4542 -2 l6 -15 10 0 11 0 34 -21 35 -22 -17 -10 -18 -10 -9 17 -9 16 -19 0 -20 0 -16 -25 -16 -25 -9 0 -9 0 0 16 0 16 22 18 22 17 -22 12 -23 12 6 10 6 9 15 0 15 0 5 -15z m3479 -63 l-6 -6 -20 21 -21 21 21 7 21 6 2 12 1 12 4 -33 4 -34 -6 -6z m-4480 42 l17 -7 -14 -8 -13 -9 -7 0 -8 0 0 15 0 15 4 0 4 0 17 -6z m106 -11 l29 -17 0 -8 0 -7 -9 -5 -9 -6 -26 21 -26 20 0 10 0 9 6 0 6 0 29 -17z m5316 -9 l-6 -6 -10 7 -11 6 6 11 6 10 11 -11 11 -11 -7 -6z m-4677 -14 l0 -10 -15 0 -15 0 0 10 0 10 15 0 15 0 0 -10z m57 -16 l-6 -6 -10 7 -11 6 6 11 6 10 11 -11 11 -11 -7 -6z m3596 20 l6 -7 -5 -8 -5 -8 -14 5 -15 6 6 9 5 9 8 0 8 0 6 -6z m1143 -9 l6 -15 14 0 14 0 0 -20 0 -20 -11 0 -11 0 -5 19 -5 19 -19 5 -19 5 0 11 0 11 15 0 16 0 5 -15z m117 -10 l18 -12 45 -43 45 -42 -4 -11 -3 -11 -12 -4 -12 -4 -10 24 -11 24 -47 24 -47 25 -17 18 -18 17 0 10 0 10 28 -6 27 -7 18 -12z m85 3 l12 -12 0 -8 0 -8 -15 0 -15 0 0 14 0 14 -12 5 -13 5 16 1 15 1 12 -12z m-4898 -28 l20 -20 0 -10 0 -10 -7 0 -8 0 -22 24 -22 23 6 7 6 6 4 0 3 0 20 -20z m230 -20 l10 0 0 -10 0 -10 -20 0 -20 0 0 15 0 15 -15 0 -15 0 0 8 0 9 7 6 6 7 19 -20 19 -20 9 0z m3390 30 l0 -10 -25 0 -25 0 0 10 0 10 25 0 25 0 0 -10z m1366 -4 l5 -14 -3 -34 -3 -33 -22 36 -23 36 0 12 0 11 20 0 21 0 5 -14z m-1514 -8 l-12 -12 -12 12 -12 12 24 0 24 0 -12 -12z m1173 -26 l-18 -4 -8 13 -8 13 6 9 5 8 20 -18 20 -18 -17 -3z m-4540 -12 l-7 -12 -10 10 -10 10 7 12 7 12 10 -10 10 -10 -7 -12z m3301 15 l6 -15 29 0 29 0 0 -15 0 -15 -30 0 -30 0 0 14 0 15 -22 3 -21 3 -5 13 -4 12 21 0 22 0 5 -15z m165 -17 l39 -31 0 -9 0 -8 -8 0 -9 0 -46 31 -47 31 0 9 0 9 16 0 15 0 40 -32z m-3488 -60 l17 -18 0 -12 0 -11 -25 23 -25 23 0 14 0 13 -10 0 -10 0 1 18 0 17 17 -25 17 -25 18 -17z m227 47 l0 -15 -4 0 -4 0 -17 6 -17 7 14 8 13 9 8 0 7 0 0 -15z m4382 0 l0 -9 -11 -4 -11 -4 0 17 0 17 11 -4 11 -3 0 -10z m-4515 -26 l11 -11 20 11 21 11 10 0 11 0 0 -12 0 -13 27 -12 27 -13 12 0 12 0 11 -14 12 -14 -30 -7 -29 -6 -6 -16 -7 -16 -11 11 -12 12 19 13 18 14 -11 7 -11 6 -6 -10 -6 -10 -25 0 -24 0 0 10 0 10 -13 0 -14 0 -21 23 -22 23 7 7 6 7 7 0 6 0 11 -11z m3076 -11 l47 -23 0 -10 0 -10 -10 -15 -10 -15 -19 23 -19 22 -14 0 -13 1 -22 18 -23 19 0 6 0 6 18 0 17 0 48 -22z m1557 9 l0 -12 -20 -13 -20 -12 -7 16 -6 16 14 9 14 9 13 0 12 0 0 -13z m-1285 -53 l-22 -24 -12 0 -11 0 0 9 0 9 -6 16 -6 16 16 0 17 0 5 14 6 14 17 -15 18 -15 -22 -24z m-391 20 l16 -15 0 -9 0 -9 -11 -6 -11 -7 -19 21 -19 20 0 11 0 10 14 0 15 0 15 -16z m1836 -9 l0 -25 -9 0 -10 0 -6 10 -7 11 6 14 5 15 11 0 10 0 0 -25z m50 -27 l-1 -33 -10 18 -11 18 6 15 5 14 6 0 5 0 0 -32z m-1972 3 l5 -13 -14 4 -13 4 -4 13 -4 14 13 -5 13 -4 4 -13z m332 -37 l0 -11 -25 -11 -24 -11 -6 9 -6 10 15 6 16 6 0 13 0 13 -22 6 -23 6 14 9 15 9 23 -21 23 -22 0 -11z m1498 37 l22 -18 0 -12 0 -11 -6 0 -7 0 -33 21 -34 21 6 9 5 9 13 0 13 0 21 -19z m-1688 1 l0 -8 45 -23 45 -22 0 -10 0 -9 15 0 15 0 0 -25 0 -25 -5 0 -5 0 -28 18 -29 17 -36 32 -37 32 0 16 0 15 10 0 10 0 0 -8z m-3041 -26 l23 -25 -7 -10 -6 -11 -10 0 -9 0 0 15 0 15 -15 0 -15 0 0 20 0 20 8 0 9 0 22 -24z m2853 -14 l26 -27 41 -25 41 -25 -5 -21 -5 -21 26 -12 26 -11 -7 -18 -7 -17 -10 -27 -10 -28 -19 0 -19 0 0 10 0 11 15 5 14 6 6 19 6 18 -11 21 -11 20 -16 0 -17 0 -47 49 -47 49 -11 20 -11 21 0 5 0 6 13 0 12 -1 27 -27z m101 8 l25 -20 11 0 11 0 0 -20 0 -20 -12 0 -13 0 -38 33 -37 33 6 7 7 7 7 0 7 0 26 -20z m-2781 -32 l-10 -10 -11 7 -11 6 5 9 6 9 15 -6 15 -6 -9 -9z m3086 -5 l-3 -18 -10 2 -10 2 -3 15 -3 16 16 0 16 0 -3 -17z m-455 -47 l54 -54 27 -17 26 -17 0 -9 0 -9 -20 0 -20 0 -70 66 -70 67 0 13 0 14 10 0 10 0 53 -54z m-2576 18 l-6 -6 -10 7 -11 6 6 11 6 10 11 -11 11 -11 -7 -6z m903 -16 l0 -8 -27 0 -26 0 18 20 19 20 8 -12 8 -13 0 -7z m1564 17 l18 -14 -4 -11 -3 -10 -23 15 -22 16 0 10 0 9 8 0 7 -1 19 -14z m358 -13 l16 -7 -19 -23 -18 -24 -11 7 -10 6 0 18 0 18 7 6 6 7 6 -1 6 0 17 -7z m-432 -11 l0 -9 -15 -12 -15 -13 -7 6 -6 7 13 15 12 15 9 0 9 0 0 -9z m-2499 -26 l-1 -10 -12 0 -11 0 -5 13 -4 14 16 -4 17 -3 0 -10z m1200 -17 l18 -23 1 -12 0 -13 -8 0 -9 0 -11 25 -12 25 -10 0 -10 0 0 10 0 10 11 0 11 0 19 -22z m1435 8 l14 -15 0 -10 0 -11 -9 0 -10 0 -6 10 -7 11 -14 -12 -14 -12 -6 6 -5 5 13 21 13 21 8 0 8 0 15 -14z m354 -12 l0 -14 13 0 13 0 12 12 12 12 0 -25 0 -24 -44 -24 -43 -24 -32 22 -31 22 0 9 0 8 34 12 34 11 6 15 6 15 10 -6 10 -6 0 -15z m-449 -23 l29 -29 0 -11 0 -11 -6 0 -7 0 -33 36 -34 35 0 5 0 4 11 0 11 0 29 -29z m-1441 -13 l0 -8 -10 0 -10 0 0 23 0 22 10 -15 10 -15 0 -7z m242 -3 l0 -9 -11 -4 -11 -4 0 17 0 17 11 -4 11 -3 0 -10z m358 -1 l0 -16 -12 4 -12 4 -4 12 -4 12 16 0 16 0 0 -16z m1002 -19 l19 -25 25 0 24 0 0 -10 0 -10 -26 -6 -25 -6 -23 21 -23 22 -17 -7 -18 -7 -9 -23 -9 -24 -20 17 -21 18 23 3 23 3 20 29 20 30 9 0 8 0 20 -25z m-902 -17 l24 -33 13 -8 13 -8 0 -9 0 -10 -15 0 -15 0 0 15 0 15 -12 0 -11 0 -19 17 -18 16 0 19 0 18 8 0 8 0 24 -32z m-1644 -13 l-5 -15 -10 0 -9 0 11 25 12 24 3 -10 4 -10 -6 -14z m1060 1 l34 -34 0 -6 0 -6 -19 0 -20 0 -20 29 -21 29 0 11 0 11 6 0 6 0 34 -34z m364 13 l0 -9 -15 0 -15 0 0 -10 0 -10 -16 0 -16 0 23 24 23 24 8 -4 8 -5 0 -10z m80 1 l0 -10 -15 0 -15 0 0 10 0 10 15 0 15 0 0 -10z m-323 -36 l-6 -6 -10 7 -11 6 6 11 6 10 11 -11 11 -11 -7 -6z m259 -9 l-27 -25 -10 0 -9 0 0 15 0 15 15 0 15 0 0 10 0 10 21 0 22 0 -27 -25z m1318 3 l10 -17 -6 -7 -7 -6 -16 16 -16 16 -10 0 -9 0 0 11 0 10 21 -3 22 -3 11 -17z m-1168 -2 l19 -15 -11 -11 -12 -12 -21 11 -21 12 0 8 0 8 7 6 6 7 7 0 6 0 20 -14z m-357 -17 l24 -20 -11 -11 -10 -10 -11 6 -11 7 0 15 0 14 -10 0 -10 0 0 10 0 10 8 0 7 -1 24 -20z m97 6 l6 -15 14 0 14 0 0 -15 0 -15 -7 0 -8 0 -22 24 -23 24 0 6 0 6 10 0 11 0 5 -15z m1321 -11 l-6 -6 -10 7 -11 6 6 11 6 10 11 -11 11 -11 -7 -6z m-133 -9 l-6 -25 11 0 11 0 0 -10 0 -10 -11 0 -10 0 -15 14 -14 15 0 7 0 7 18 13 17 13 3 1 2 0 -6 -25z m-1019 -44 l-4 -3 -16 5 -15 6 0 22 0 21 19 -23 19 -24 -3 -4z m-335 35 l0 -4 -6 -16 -6 -16 -9 0 -9 0 0 20 0 20 15 0 15 0 0 -4z m1520 -12 l0 -16 -12 4 -12 4 -4 12 -4 12 16 0 16 0 0 -16z m-95 -35 l-7 -22 -10 17 -10 17 6 16 7 16 10 -10 11 -11 -7 -23z m-1287 13 l4 -12 -16 0 -16 0 0 16 0 16 12 -4 12 -4 4 -12z m112 3 l0 -15 -15 0 -15 0 0 8 0 9 7 6 6 7 9 0 8 0 0 -15z m235 4 l7 -10 -5 -6 -5 -5 -21 7 -21 6 5 10 6 9 14 0 14 0 6 -11z m65 -14 l0 -25 -14 0 -14 0 11 25 12 25 3 0 2 0 0 -25z m-490 -15 l15 -10 -22 0 -23 0 0 10 0 10 8 0 7 0 15 -10z m321 -5 l-1 -10 -12 0 -11 0 -5 13 -4 14 16 -4 17 -3 0 -10z m-246 -25 l6 -10 -15 -6 -16 -6 -16 6 -15 6 6 10 6 10 19 0 19 0 6 -10z m81 -37 l-6 -6 -6 6 -6 6 7 18 8 18 4 -18 5 -19 -6 -5z m254 9 l0 -9 -6 -6 -7 -6 -9 5 -8 5 5 10 6 9 10 0 9 0 0 -8z m1070 -7 l0 -10 -20 -13 -20 -12 0 10 0 10 -25 6 -25 6 0 8 0 7 45 -1 45 -1 0 -10z m-1020 -61 l0 -16 -16 6 -16 6 -26 1 -27 2 35 7 35 7 8 2 7 1 0 -16z"/>
<path d="M5692 2477 l-12 -14 15 -13 15 -12 0 -15 0 -14 -19 6 -20 6 -21 -21 -22 -22 7 -16 6 -17 17 22 17 23 33 6 33 7 15 21 15 21 35 -42 36 -43 14 0 14 0 0 12 0 11 -32 29 -31 28 5 5 5 6 27 -12 26 -12 5 4 4 5 -6 23 -6 23 -38 -5 -37 -5 -11 11 -11 11 -18 -17 -18 -17 -15 16 -16 15 -11 -14z"/>
<path d="M6106 2441 l-6 -9 6 -16 6 -16 -31 -26 -31 -26 0 -10 0 -9 28 3 27 3 3 28 3 27 25 0 24 0 0 13 0 14 -18 16 -19 17 -6 0 -6 0 -5 -9z"/>
<path d="M5906 2411 l-6 -9 6 -16 6 -16 9 0 9 0 0 19 0 20 -9 6 -10 5 -5 -9z"/>
<path d="M6266 2412 l-4 -7 18 -23 18 -22 11 0 11 0 0 14 0 14 -24 16 -25 16 -5 -8z"/>
<path d="M5370 2375 l0 -15 25 0 25 0 0 15 0 15 -25 0 -25 0 0 -15z"/>
<path d="M5980 2375 l0 -15 20 0 20 0 0 15 0 15 -20 0 -20 0 0 -15z"/>
<path d="M6470 2368 l0 -23 24 -23 24 -23 7 11 7 11 -16 18 -16 18 0 16 0 17 -15 0 -15 0 0 -22z"/>
<path d="M6680 2370 l0 -20 15 0 15 0 0 20 0 20 -15 0 -15 0 0 -20z"/>
<path d="M6200 2350 l0 -20 15 0 15 0 0 20 0 20 -15 0 -15 0 0 -20z"/>
<path d="M5030 2345 l0 -15 10 0 10 0 0 -20 0 -20 -11 0 -10 0 5 -9 6 -9 30 15 30 14 0 14 0 14 -20 6 -20 6 0 10 0 9 -15 0 -15 0 0 -15z"/>
<path d="M5222 2342 l-23 -18 7 -17 6 -17 15 0 15 0 5 20 5 20 9 0 9 0 0 15 0 15 -12 0 -13 0 -23 -18z"/>
<path d="M5681 2341 l-24 -18 7 -19 7 -19 17 21 17 21 18 6 18 7 -6 10 -6 10 -12 0 -12 0 -24 -19z"/>
<path d="M5387 2329 l-17 -10 0 -9 0 -10 20 0 20 0 0 -20 0 -20 -10 0 -10 0 0 -25 0 -25 -10 0 -10 0 -12 -25 -11 -26 11 -11 11 -11 15 13 16 12 -6 24 -6 24 16 0 16 0 0 24 0 24 20 5 20 5 0 21 0 21 10 0 10 0 22 -25 22 -26 18 23 17 23 6 -18 7 -17 15 0 14 0 -3 28 -3 27 -21 3 -21 3 -13 -16 -13 -16 -19 17 -18 17 -25 -13 -25 -13 -17 16 -18 16 -18 -10z"/>
<path d="M5146 2321 l-6 -9 14 -11 13 -11 6 7 7 6 0 14 0 13 -14 0 -15 0 -5 -9z"/>
<path d="M5835 2309 l-7 -21 16 -16 16 -16 11 11 12 12 -7 25 -6 26 -15 0 -14 0 -6 -21z"/>
<path d="M5956 2321 l-6 -9 14 -11 13 -11 12 13 11 14 -7 6 -6 7 -13 0 -13 0 -5 -9z"/>
<path d="M6265 2319 l-7 -10 6 -6 6 -7 11 11 11 11 -10 6 -11 6 -6 -11z"/>
<path d="M6387 2323 l-7 -6 0 -9 0 -8 35 0 35 0 0 15 0 15 -28 0 -29 0 -6 -7z"/>
<path d="M6612 2318 l5 -13 11 0 12 0 1 10 0 10 -17 3 -16 4 4 -14z"/>
<path d="M6818 2309 l-18 -19 0 -10 0 -10 10 0 10 0 20 17 20 17 0 13 0 13 -12 -1 -13 -1 -17 -19z"/>
<path d="M5744 2295 l-7 -16 11 -11 11 -11 16 7 16 6 -3 17 -3 18 -18 3 -17 3 -6 -16z"/>
<path d="M6111 2296 l-11 -13 14 -12 13 -11 12 14 11 13 -14 12 -13 11 -12 -14z"/>
<path d="M5296 2291 l-6 -9 14 -12 15 -11 21 11 21 11 -6 10 -6 9 -24 0 -24 0 -5 -9z"/>
<path d="M5180 2265 l-10 -12 12 -10 13 -10 38 5 38 4 -4 12 -4 11 -36 6 -37 6 -10 -12z"/>
<path d="M4927 2244 l-19 -25 5 -6 6 -5 31 22 30 22 -5 9 -6 9 -12 0 -12 -1 -18 -25z"/>
<path d="M5065 2260 l-6 -10 6 -20 6 -20 21 0 21 0 11 -15 11 -15 40 -3 40 -2 0 20 0 20 -47 -3 -47 -3 -3 28 -3 28 -22 3 -21 3 -7 -11z"/>
<path d="M5634 2256 l-6 -16 6 -16 6 -15 10 6 10 6 0 19 0 19 -10 6 -10 6 -6 -15z"/>
<path d="M5990 2255 l0 -15 15 0 15 0 0 15 0 15 -15 0 -15 0 0 -15z"/>
<path d="M6290 2255 l0 -15 25 0 25 0 0 15 0 15 -25 0 -25 0 0 -15z"/>
<path d="M6530 2255 l0 -15 15 0 15 0 0 15 0 15 -15 0 -15 0 0 -15z"/>
<path d="M6205 2249 l-7 -11 10 -10 9 -9 6 15 6 15 -9 6 -9 5 -6 -11z"/>
<path d="M6476 2253 l-6 -6 0 -19 0 -18 15 0 15 0 0 19 0 20 -9 5 -8 5 -7 -6z"/>
<path d="M5452 2238 l-12 -12 0 -7 0 -7 14 -5 15 -6 10 13 11 13 -13 11 -13 12 -12 -12z"/>
<path d="M5534 2235 l-7 -16 11 -11 11 -11 16 7 16 6 -3 17 -3 18 -18 3 -17 3 -6 -16z"/>
<path d="M5701 2224 l-23 -23 5 -16 6 -15 12 0 12 0 24 26 24 26 -5 14 -5 14 -13 -1 -13 -1 -24 -24z"/>
<path d="M4121 2218 l-9 -23 5 -7 4 -8 18 0 19 0 5 22 6 21 -5 9 -5 8 -15 0 -15 0 -8 -22z"/>
<path d="M4822 2224 l3 -15 10 -2 10 -2 3 18 3 17 -16 0 -16 0 3 -16z"/>
<path d="M4997 2234 l-7 -7 0 -24 0 -23 -16 0 -17 0 -12 -17 -13 -18 -19 24 -19 23 -13 -15 -12 -16 11 -20 11 -21 32 0 32 1 43 39 44 39 -4 18 -3 18 -16 3 -15 3 -7 -7z"/>
<path d="M5787 2233 l-7 -6 0 -9 0 -8 25 0 25 0 0 15 0 15 -18 0 -19 0 -6 -7z"/>
<path d="M5932 2224 l3 -15 10 -2 10 -2 3 18 3 17 -16 0 -16 0 3 -16z"/>
<path d="M6410 2225 l0 -15 15 0 15 0 0 15 0 15 -15 0 -15 0 0 -15z"/>
<path d="M6650 2225 l0 -15 15 0 15 0 0 15 0 15 -15 0 -15 0 0 -15z"/>
<path d="M6740 2225 l0 -15 15 0 15 0 0 15 0 15 -15 0 -15 0 0 -15z"/>
<path d="M5294 2205 l-7 -16 11 -11 11 -11 16 7 16 6 -3 17 -3 18 -18 3 -17 3 -6 -16z"/>
<path d="M6024 2205 l-7 -16 10 -10 10 -10 12 14 11 14 -15 13 -15 12 -6 -17z"/>
<path d="M6338 2189 l-18 -19 0 -10 0 -10 10 0 10 0 20 20 20 20 0 10 0 10 -12 -1 -13 -1 -17 -19z"/>
<path d="M6905 2201 l-5 -10 10 -6 10 -6 10 6 10 6 -5 10 -6 9 -9 0 -9 0 -6 -9z"/>
<path d="M5564 2176 l-6 -15 4 -23 3 -23 20 0 20 0 0 35 0 35 -18 3 -17 3 -6 -15z"/>
<path d="M5837 2176 l-6 -15 14 -11 13 -11 7 11 7 11 -6 14 -5 15 -10 0 -9 0 -5 -14z"/>
<path d="M5904 2175 l-7 -16 10 -10 10 -10 12 14 11 14 -15 13 -15 12 -6 -17z"/>
<path d="M4040 2149 l0 -31 25 4 25 5 7 -10 6 -10 -20 -16 -20 -16 -7 -19 -6 -19 15 -24 16 -24 14 11 15 12 -9 17 -9 16 9 23 8 22 11 0 10 0 0 14 0 14 16 6 15 6 -7 11 -6 11 -33 -6 -33 -7 -7 21 -6 20 -15 0 -14 0 0 -31z"/>
<path d="M4343 2173 l-23 -4 0 -10 0 -9 11 0 11 0 -5 -26 -5 -26 14 -5 13 -5 11 7 10 6 -10 19 -10 18 20 5 20 5 0 16 0 16 -17 -1 -18 -2 -22 -4z"/>
<path d="M4612 2163 l4 -18 18 3 18 3 15 -21 15 -21 14 12 14 12 -11 13 -11 14 -14 0 -14 0 0 10 0 10 -26 0 -25 0 3 -17z"/>
<path d="M5240 2159 l0 -21 23 -24 22 -24 23 0 22 0 0 15 0 15 -30 0 -30 0 0 30 0 30 -15 0 -15 0 0 -21z"/>
<path d="M6196 2171 l-6 -9 14 -11 13 -11 6 7 7 6 0 14 0 13 -14 0 -15 0 -5 -9z"/>
<path d="M6772 2164 l3 -15 10 -2 10 -2 3 18 3 17 -16 0 -16 0 3 -16z"/>
<path d="M7130 2165 l0 -15 25 0 25 0 0 15 0 15 -25 0 -25 0 0 -15z"/>
<path d="M6534 2156 l-6 -17 6 -6 6 -7 12 12 12 12 -12 12 -11 11 -7 -17z"/>
<path d="M6620 2161 l0 -10 16 -15 15 -16 9 0 9 0 5 8 5 8 -20 17 -19 17 -10 0 -10 0 0 -9z"/>
<path d="M4784 2145 l-7 -16 11 -11 11 -11 16 7 16 6 -3 17 -3 18 -18 3 -17 3 -6 -16z"/>
<path d="M5084 2145 l-6 -14 7 -11 6 -10 15 0 15 0 6 16 6 16 -14 9 -14 9 -8 0 -8 0 -5 -15z"/>
<path d="M5416 2143 l-7 -16 11 -11 10 -10 16 16 16 16 -6 11 -7 11 -14 0 -13 0 -6 -17z"/>
<path d="M5721 2146 l-11 -13 15 -13 16 -13 11 11 11 11 -6 15 -6 16 -9 0 -10 0 -11 -14z"/>
<path d="M5961 2131 l-12 -22 12 -15 12 -14 13 11 14 11 0 7 0 7 -14 19 -13 19 -12 -23z"/>
<path d="M6425 2139 l-7 -10 3 -4 4 -3 20 -4 19 -3 4 18 3 17 -20 0 -20 0 -6 -11z"/>
<path d="M6886 2141 l-6 -9 14 -11 13 -11 6 7 7 6 0 14 0 13 -14 0 -15 0 -5 -9z"/>
<path d="M4214 2115 l-7 -16 11 -11 11 -11 16 7 16 6 -3 17 -3 18 -18 3 -17 3 -6 -16z"/>
<path d="M6081 2116 l-11 -13 14 -12 15 -12 22 12 23 12 -19 13 -19 14 -7 0 -7 0 -11 -14z"/>
<path d="M6274 2116 l-19 -15 20 -7 20 -7 20 -18 20 -18 15 9 14 9 -29 30 -30 30 -6 1 -5 0 -20 -14z"/>
<path d="M7013 2119 l-11 -11 5 -14 5 -14 13 0 13 0 5 14 6 15 -13 10 -12 11 -11 -11z"/>
<path d="M7285 2122 l-10 -7 -18 -33 -19 -33 12 -15 13 -14 14 11 13 12 -5 18 -6 19 15 0 15 0 7 11 6 11 -13 14 -14 13 -10 -7z"/>
<path d="M4437 2114 l-6 -7 5 -8 5 -9 17 0 17 0 13 -20 12 -19 15 5 15 6 19 -23 20 -24 7 18 7 18 -9 9 -9 8 -49 26 -49 26 -12 0 -12 0 -6 -6z"/>
<path d="M4580 2105 l0 -15 15 0 15 0 0 15 0 15 -15 0 -15 0 0 -15z"/>
<path d="M5007 2114 l-6 -7 5 -8 5 -9 25 0 24 0 0 15 0 15 -23 0 -24 0 -6 -6z"/>
<path d="M5660 2105 l0 -15 15 0 15 0 0 15 0 15 -15 0 -15 0 0 -15z"/>
<path d="M6737 2114 l-6 -6 6 -14 5 -14 13 0 13 0 5 14 6 14 -6 6 -6 6 -12 0 -12 0 -6 -6z"/>
<path d="M7127 2114 l-6 -6 6 -14 5 -14 13 0 13 0 5 14 6 14 -6 6 -6 6 -12 0 -12 0 -6 -6z"/>
<path d="M5894 2085 l-6 -14 7 -11 6 -10 14 0 14 0 6 10 7 11 -12 14 -12 15 -10 0 -9 0 -5 -15z"/>
<path d="M6151 2069 l-23 -31 12 -8 13 -8 29 21 29 21 -3 16 -3 15 -15 3 -16 3 -23 -32z"/>
<path d="M6501 2086 l-11 -13 14 -12 13 -11 12 14 11 13 -14 12 -13 11 -12 -14z"/>
<path d="M3432 2057 l-12 -33 0 -6 0 -6 25 11 25 12 0 28 0 27 -13 0 -13 0 -12 -33z"/>
<path d="M3517 2070 l-17 -20 0 -10 0 -10 14 0 15 0 8 13 8 12 5 -30 5 -30 20 0 20 0 3 21 3 20 -25 27 -25 27 -8 0 -9 0 -17 -20z"/>
<path d="M4130 2061 l0 -30 10 -6 10 -6 20 11 20 11 -16 24 -16 25 -14 0 -14 0 0 -29z"/>
<path d="M4646 2082 l-6 -11 11 -6 10 -7 6 6 7 6 -11 11 -11 11 -6 -10z"/>
<path d="M4910 2075 l0 -16 25 3 26 3 0 10 0 10 -26 3 -25 3 0 -16z"/>
<path d="M5097 2083 l-7 -6 0 -9 0 -8 15 0 15 0 0 15 0 15 -8 0 -9 0 -6 -7z"/>
<path d="M5180 2075 l0 -15 30 0 30 0 0 15 0 15 -30 0 -30 0 0 -15z"/>
<path d="M5420 2075 l0 -15 30 0 30 0 0 15 0 15 -30 0 -30 0 0 -15z"/>
<path d="M5572 2063 l3 -28 23 -3 23 -4 6 -14 5 -14 14 0 14 0 0 10 0 9 -35 36 -36 35 -10 0 -10 0 3 -27z"/>
<path d="M5810 2060 l0 -30 15 0 15 0 0 30 0 30 -15 0 -15 0 0 -30z"/>
<path d="M6656 2083 l-6 -6 0 -9 0 -8 15 0 15 0 0 9 0 10 -9 5 -8 5 -7 -6z"/>
<path d="M7575 2080 l-6 -10 6 -30 7 -30 -31 0 -31 0 -6 -24 -6 -25 7 -20 6 -21 12 0 12 1 30 13 30 13 23 -9 24 -8 9 6 9 5 0 23 0 23 -7 6 -6 7 -18 -16 -18 -16 -10 7 -11 6 0 15 0 14 25 10 25 10 0 11 0 11 -22 19 -23 18 -12 1 -12 0 -6 -10z"/>
<path d="M3890 2057 l0 -24 7 -6 6 -7 13 11 14 11 -11 19 -10 19 -9 0 -10 0 0 -23z"/>
<path d="M4817 2056 l-6 -15 12 -10 13 -10 13 9 14 8 -6 16 -6 16 -15 0 -14 0 -5 -14z"/>
<path d="M4335 2050 l-6 -10 15 -6 15 -6 11 7 10 6 -5 10 -6 9 -14 0 -14 0 -6 -10z"/>
<path d="M4430 2040 l-11 -20 6 -10 6 -10 15 0 14 0 0 24 0 25 -9 6 -10 6 -11 -21z"/>
<path d="M6085 2049 l-7 -10 6 -6 6 -7 11 11 11 11 -10 6 -11 6 -6 -11z"/>
<path d="M7404 2043 l-6 -18 -10 -22 -10 -21 6 -11 7 -11 24 0 24 0 6 11 7 10 25 10 24 9 -3 17 -3 18 -18 3 -18 4 -6 -20 -5 -21 -14 6 -15 5 6 18 6 18 -11 7 -10 6 -6 -18z"/>
<path d="M3350 2015 l0 -15 15 0 15 0 0 15 0 15 -15 0 -15 0 0 -15z"/>
<path d="M3620 2015 l0 -15 15 0 15 0 0 15 0 15 -15 0 -15 0 0 -15z"/>
<path d="M4230 2015 l0 -16 23 3 22 3 0 10 0 10 -22 3 -23 3 0 -16z"/>
<path d="M4700 2015 l0 -15 15 0 15 0 0 15 0 15 -15 0 -15 0 0 -15z"/>
<path d="M6517 2012 l-17 -19 0 -11 0 -12 26 -6 25 -7 11 11 10 10 -4 23 -3 24 -16 3 -15 3 -17 -19z"/>
<path d="M6830 2015 l0 -15 15 0 15 0 0 15 0 15 -15 0 -15 0 0 -15z"/>
<path d="M6956 2023 l-6 -6 0 -24 0 -23 15 0 15 0 0 24 0 25 -9 5 -8 5 -7 -6z"/>
<path d="M7010 2015 l0 -15 15 0 15 0 0 15 0 15 -15 0 -15 0 0 -15z"/>
<path d="M3472 1997 l-12 -14 14 -12 15 -13 23 4 23 3 0 20 0 20 -26 3 -26 3 -11 -14z"/>
<path d="M5331 1997 l-11 -11 0 -23 0 -24 15 -5 14 -6 7 -36 7 -37 20 -27 20 -27 14 -6 15 -5 9 6 10 6 -11 13 -10 12 -2 49 -1 49 -10 13 -9 12 -19 0 -19 0 0 24 0 24 -14 5 -14 5 -11 -11z"/>
<path d="M7265 1996 l-19 -13 21 -12 22 -11 15 6 16 6 0 7 0 7 -12 12 -12 12 -6 0 -6 0 -19 -14z"/>
<path d="M7753 1994 l-6 -15 11 -11 11 -11 27 12 26 11 -12 15 -12 15 -20 0 -19 0 -6 -16z"/>
<path d="M3047 1970 l17 -19 4 4 4 4 -5 16 -6 15 -16 0 -15 0 17 -20z"/>
<path d="M3255 1971 l-30 -6 -3 -28 -3 -27 -8 0 -8 0 -11 -25 -12 -26 0 -18 0 -18 20 -18 20 -18 26 11 25 12 9 0 10 0 0 -20 0 -20 60 32 60 31 6 23 6 23 15 5 15 6 -23 37 -23 38 -10 7 -11 8 -50 -1 -50 -1 -30 -7z m113 -49 l4 -14 -18 3 -19 3 -37 -13 -36 -12 -6 -14 -5 -15 -11 0 -10 0 0 20 0 20 14 0 15 0 5 18 6 18 47 -1 46 0 5 -13z"/>
<path d="M3170 1960 l0 -10 -24 0 -23 0 5 -25 4 -25 18 0 19 0 6 19 6 19 15 6 15 6 -6 10 -6 10 -15 0 -14 0 0 -10z"/>
<path d="M6435 1938 l-4 -13 1 -15 1 -15 -1 -17 -2 -18 -19 0 -18 0 -6 30 -6 30 -16 0 -15 0 -6 -25 -6 -25 16 -25 16 -25 -16 -25 -16 -25 16 -6 16 -6 0 -14 0 -14 -15 0 -15 0 0 -14 0 -14 21 -5 21 -6 -7 -10 -6 -11 -25 6 -24 6 0 -21 0 -21 26 0 25 0 20 -10 19 -11 0 -14 0 -15 -15 0 -15 0 0 10 0 10 -45 0 -45 0 0 -21 0 -21 33 6 33 6 7 -6 6 -7 -14 -21 -15 -20 0 -18 0 -17 11 -6 10 -7 25 6 24 6 0 14 0 14 -12 6 -13 5 18 14 17 14 0 10 0 10 39 18 40 18 6 14 5 15 21 -5 20 -5 6 15 6 15 -17 10 -16 9 5 10 6 9 23 0 24 0 5 28 6 27 7 27 6 28 -32 -11 -32 -11 7 -25 6 -25 -13 4 -13 5 0 30 0 29 -28 37 -28 37 25 0 25 0 6 20 7 21 -12 14 -12 15 -9 0 -9 0 -6 -26 -7 -27 -14 27 -14 26 -10 0 -10 0 -4 -12z m55 -154 l0 -25 -47 3 -46 3 -5 14 -5 14 36 -6 36 -6 12 15 11 14 4 0 4 0 0 -26z m10 -64 l14 -9 -6 -7 -7 -6 -28 6 -27 7 15 10 14 9 5 0 5 0 15 -10z"/>
<path d="M6554 1935 l-7 -16 10 -10 11 -11 -11 -29 -11 -29 17 -17 17 -18 25 30 24 30 1 7 0 7 -19 6 -20 6 2 27 2 26 -18 4 -17 3 -6 -16z"/>
<path d="M7847 1943 l-7 -6 0 -18 0 -18 11 -7 11 -6 15 15 16 15 -6 16 -6 16 -14 0 -14 0 -6 -7z"/>
<path d="M5582 1916 l-23 -22 20 -18 20 -18 -1 -7 -2 -6 8 -33 8 -33 -16 -18 -16 -18 7 -6 6 -7 14 0 14 0 24 26 25 27 0 18 0 18 -17 10 -17 9 12 15 12 14 -15 13 -15 12 0 24 0 24 -12 -1 -13 0 -23 -23z"/>
<path d="M6855 1909 l-7 -10 6 -25 6 -24 25 0 25 0 0 -10 0 -11 -15 -5 -15 -6 0 -14 0 -15 15 -5 15 -6 0 -9 0 -9 -20 0 -20 0 0 -14 0 -14 15 -6 15 -6 -12 -20 -13 -21 18 -14 18 -13 -48 -4 -48 -5 -12 10 -12 9 -11 -7 -10 -6 0 -20 0 -19 28 -1 27 -2 40 -2 39 -2 4 -13 5 -14 36 -33 36 -33 13 0 13 0 5 15 6 15 7 0 8 0 -5 -29 -4 -29 12 -7 12 -7 16 16 17 16 -12 20 -13 19 27 31 26 32 -14 9 -14 9 -7 0 -8 0 0 -9 0 -10 -31 -22 -31 -22 -14 15 -15 14 7 17 6 16 19 -12 19 -12 16 17 16 16 -6 11 -7 11 -19 0 -19 0 -6 -10 -6 -10 -22 12 -22 11 -12 13 -13 13 0 10 0 11 10 0 10 0 0 -15 0 -15 26 -6 25 -7 11 11 11 11 -6 15 -6 16 -31 0 -30 0 0 10 0 11 15 5 15 6 0 24 0 24 -26 6 -27 7 17 9 16 9 0 14 0 14 -20 11 -20 11 0 14 0 14 -19 11 -20 10 -10 0 -10 0 -6 -11z"/>
<path d="M3014 1895 l-6 -15 -23 0 -24 0 -6 -10 -7 -11 31 -10 31 -11 0 -9 0 -9 15 0 16 0 5 -15 6 -15 24 0 25 0 5 -15 6 -15 18 0 18 0 32 -30 32 -30 13 0 12 0 18 -20 18 -20 9 0 9 0 15 -14 14 -14 22 -19 23 -18 28 -42 27 -43 10 0 10 0 0 -55 0 -55 15 0 15 0 0 60 0 60 -9 0 -10 0 -7 22 -6 21 -12 14 -11 14 -32 34 -33 35 0 8 0 7 -40 19 -40 19 0 7 0 7 -50 24 -50 24 0 7 0 8 -25 0 -26 0 -5 15 -6 15 -22 0 -21 0 -22 24 -23 24 0 6 0 6 15 0 15 0 0 15 0 15 -15 0 -16 0 -5 -15z"/>
<path d="M3471 1876 l-11 -13 13 -12 14 -11 18 14 19 13 -21 11 -21 12 -11 -14z"/>
<path d="M5984 1875 l-7 -16 11 -11 11 -11 16 7 16 6 -3 17 -3 18 -18 3 -17 3 -6 -16z"/>
<path d="M3085 1871 l-5 -10 10 -6 10 -6 10 6 10 6 0 10 0 9 -14 0 -15 0 -6 -9z"/>
<path d="M3804 1866 l-6 -16 -14 0 -14 0 0 -15 0 -15 13 0 12 1 18 24 17 24 -10 6 -10 6 -6 -15z"/>
<path d="M5956 1814 l-5 -13 12 -8 12 -9 33 2 32 2 11 1 10 1 -3 17 -3 18 -47 1 -47 1 -5 -13z"/>
<path d="M8780 1811 l0 -21 16 0 15 0 -3 17 -3 16 -12 5 -13 4 0 -21z"/>
<path d="M3697 1814 l-6 -7 5 -8 5 -9 20 0 19 0 0 15 0 15 -18 0 -19 0 -6 -6z"/>
<path d="M7460 1801 l-10 -20 9 -23 9 -23 21 -15 21 -14 0 -14 0 -13 -15 -5 -15 -6 0 -13 0 -13 16 -6 16 -6 4 0 4 0 0 15 0 15 8 0 9 0 6 -7 7 -6 -17 -19 -16 -18 -14 0 -13 0 0 -25 0 -26 -15 -5 -15 -6 0 -10 0 -9 28 -24 27 -24 20 -1 20 0 10 8 10 7 19 29 18 28 -5 24 -4 23 21 3 21 3 3 18 3 17 -16 6 -16 6 -21 -18 -21 -19 6 18 7 19 0 9 0 9 30 0 30 0 0 9 0 9 -6 16 -6 16 -13 0 -13 0 -11 -14 -11 -13 -35 11 -35 11 0 9 0 10 -21 43 -21 43 -4 0 -3 0 -11 -19z m120 -243 l0 -8 -13 0 -13 0 -12 12 -12 12 0 8 0 8 25 -12 25 -11 0 -9z"/>
<path d="M8242 1798 l3 -23 10 0 10 0 3 23 3 22 -16 0 -16 0 3 -22z"/>
<path d="M8845 1811 l-5 -10 10 -6 10 -6 10 6 10 6 -5 10 -6 9 -9 0 -9 0 -6 -9z"/>
<path d="M7543 1794 l-6 -17 10 -16 10 -16 25 -3 25 -3 7 18 7 18 -21 17 -22 18 -14 0 -15 0 -6 -16z"/>
<path d="M3393 1793 l-13 -5 0 -15 0 -14 22 3 21 3 4 11 4 12 -13 4 -13 5 -12 -4z"/>
<path d="M5351 1787 l-11 -14 31 -22 30 -23 15 6 15 6 -22 30 -23 30 -12 0 -12 0 -11 -13z"/>
<path d="M6156 1779 l-16 -23 6 -38 7 -38 -15 0 -15 0 -7 40 -6 40 -7 0 -6 0 -19 -17 -18 -16 0 16 0 16 -9 5 -9 6 -17 -6 -16 -7 5 -23 6 -24 -8 0 -9 0 -12 26 -11 25 -18 -3 -17 -4 2 -19 1 -19 -16 -12 -17 -13 13 -13 12 -12 19 11 19 12 6 -15 6 -16 0 -4 0 -4 -22 0 -23 0 -14 -9 -14 -9 6 -16 6 -16 16 0 15 0 -6 -24 -6 -24 11 -20 10 -19 26 4 25 5 0 5 0 4 -16 24 -16 25 6 17 7 17 24 -29 24 -30 -15 -23 -15 -23 6 -9 6 -10 25 0 24 0 0 19 0 19 6 16 6 16 18 -10 19 -10 8 12 7 13 -3 27 -2 28 7 11 7 11 8 -13 9 -14 0 -37 0 -38 11 0 10 0 20 10 19 11 0 19 0 19 -10 6 -10 6 0 58 0 58 -22 10 -23 10 23 7 23 8 -3 16 -3 17 -17 3 -16 3 -16 -22z m-76 -145 l0 -14 -27 0 -26 0 18 20 18 20 8 -6 9 -5 0 -15z"/>
<path d="M3644 1755 l-7 -16 11 -11 11 -11 16 7 16 6 -3 17 -3 18 -18 3 -17 3 -6 -16z"/>
<path d="M4071 1756 l-11 -13 14 -12 13 -11 12 14 11 13 -14 12 -13 11 -12 -14z"/>
<path d="M7260 1740 l0 -20 -12 -20 -12 -19 10 -28 10 -28 -22 -40 -21 -40 -6 -53 -6 -54 25 -25 25 -25 25 6 24 6 0 -15 0 -15 -24 6 -24 6 -7 -12 -7 -11 -19 17 -20 18 -15 -16 -16 -16 7 -12 7 -12 29 6 29 6 0 -14 0 -14 14 -11 15 -12 12 23 12 23 10 -23 10 -23 16 3 16 3 3 16 3 16 -23 10 -23 10 23 7 22 7 0 14 0 14 -16 9 -15 9 15 12 16 13 0 24 0 23 -20 6 -20 6 5 10 6 9 19 -10 19 -10 11 19 10 20 -17 10 -18 11 18 14 17 13 0 11 0 11 -19 10 -18 10 4 24 5 24 -14 14 -15 14 -7 28 -6 27 -25 0 -25 0 0 -20z m60 -147 l-1 -8 -14 -25 -14 -25 -1 33 0 32 15 0 15 0 0 -7z m-40 -80 l0 -8 -9 -14 -8 -13 -7 11 -7 11 6 10 6 10 10 0 9 0 0 -7z m30 -75 l0 -9 -22 3 -23 3 -3 18 -4 17 26 -11 26 -12 0 -9z"/>
<path d="M4178 1732 l-18 -3 0 -14 0 -13 15 -6 15 -5 0 -26 0 -25 15 0 15 0 0 44 0 44 -12 4 -13 4 -17 -4z"/>
<path d="M5312 1711 l-22 -30 -22 -3 -23 -3 0 -20 0 -20 27 -3 28 -3 25 27 25 27 0 -13 0 -13 -17 -12 -16 -12 7 -11 7 -12 15 0 15 0 21 20 22 20 4 -5 5 -4 -23 -19 -23 -18 12 -22 11 -21 -9 -6 -10 -5 -6 20 -6 20 -51 0 -51 0 -18 16 -18 16 -10 -7 -11 -6 0 -7 0 -7 30 -32 30 -32 0 -11 0 -11 -22 7 -23 7 -14 1 -14 1 -4 -12 -4 -12 20 -10 20 -11 30 18 31 17 10 -15 10 -15 -5 -22 -5 -22 22 -12 22 -12 -17 -12 -17 -12 0 -11 0 -10 17 -6 16 -7 -18 -13 -19 -14 -2 -41 -2 -42 24 -9 24 -10 0 -25 0 -26 10 -20 11 -19 -16 -6 -15 -6 0 -13 0 -14 11 -6 10 -7 25 6 24 6 0 20 0 19 10 6 10 6 0 18 0 19 -30 12 -31 13 -8 16 -9 16 -2 35 -2 35 1 14 1 14 6 -6 7 -6 2 -34 2 -34 22 -22 22 -22 17 3 17 3 13 28 13 27 14 0 14 0 4 -22 4 -23 -3 33 -3 32 25 0 24 0 0 -25 0 -25 16 0 15 0 -3 23 -3 23 18 28 18 27 25 10 26 9 -4 13 -5 12 -21 3 -22 3 0 11 0 10 20 5 20 5 0 34 0 34 10 0 10 0 0 -15 0 -15 20 -20 20 -20 15 0 15 0 0 15 0 16 -15 5 -15 6 1 22 1 21 5 -12 5 -13 19 0 19 0 0 15 0 15 -10 0 -10 0 0 29 0 29 -14 11 -13 11 -17 -6 -16 -6 0 11 0 11 -30 0 -30 0 -10 -26 -10 -25 0 -3 0 -4 20 -5 20 -5 0 -11 0 -11 -10 0 -9 0 -21 22 -20 22 0 8 0 8 -15 0 -15 0 -6 -24 -6 -24 12 -21 11 -21 19 0 20 0 0 -30 0 -30 -5 0 -5 0 -20 20 -20 20 0 10 0 10 -15 0 -15 0 0 -15 0 -15 15 0 15 0 0 -25 0 -25 -10 0 -10 0 -11 24 -11 24 -19 5 -19 5 0 11 0 11 15 0 15 0 0 15 0 15 -26 10 -25 10 -7 0 -6 0 12 -12 12 -12 0 -8 0 -8 -10 0 -11 0 -20 19 -21 19 22 7 21 7 -6 30 -7 30 37 31 38 31 49 -1 49 0 30 -22 29 -22 20 11 20 11 0 10 0 11 49 -7 49 -7 23 12 23 13 -19 13 -19 14 -40 0 -39 0 -18 15 -17 16 -26 -7 -26 -6 0 -8 0 -8 -32 -8 -33 -7 -57 1 -58 1 0 -15 0 -14 -8 0 -7 0 -13 21 -13 21 -16 -6 -16 -6 -14 20 -14 20 -8 0 -7 0 -22 -29z m364 -189 l-6 -5 -5 5 -6 6 8 28 8 29 3 -28 4 -29 -6 -6z m-316 -7 l0 -25 25 0 25 0 0 -13 0 -12 -20 -13 -20 -12 -7 17 -7 18 -13 13 -13 13 0 20 0 19 15 0 15 0 0 -25z m100 -95 l15 -10 -22 0 -23 0 0 10 0 10 8 0 7 0 15 -10z m59 -47 l20 -17 -5 -8 -5 -8 -20 0 -19 0 0 9 0 9 -6 16 -6 16 11 0 11 0 19 -17z m-79 -12 l0 -10 16 -15 15 -16 -10 0 -11 0 0 -12 0 -13 -24 -23 -24 -23 -6 10 -6 10 17 9 17 10 -13 25 -13 25 -20 5 -20 6 7 10 6 11 35 0 34 0 0 -9z"/>
<path d="M3352 1718 l5 -13 21 0 22 0 0 10 1 10 -27 3 -26 4 4 -14z"/>
<path d="M3560 1715 l0 -15 15 0 15 0 0 15 0 15 -15 0 -15 0 0 -15z"/>
<path d="M4910 1715 l0 -16 18 3 17 3 -2 10 -2 10 -15 3 -16 3 0 -16z"/>
<path d="M8721 1698 l-10 -26 6 -21 6 -22 16 3 16 4 -2 33 -1 33 -11 11 -10 10 -10 -25z"/>
<path d="M5874 1696 l-7 -17 11 -11 11 -11 7 17 7 17 -11 11 -11 11 -7 -17z"/>
<path d="M6659 1681 l-26 -26 8 -23 8 -22 14 0 13 0 11 11 11 11 6 -11 7 -11 14 0 13 0 6 16 6 16 -21 34 -21 34 -11 -1 -12 -2 -26 -26z"/>
<path d="M3680 1685 l0 -16 23 3 22 3 0 10 0 10 -22 3 -23 3 0 -16z"/>
<path d="M4640 1685 l0 -15 20 0 20 0 0 15 0 15 -20 0 -20 0 0 -15z"/>
<path d="M6260 1679 l0 -21 13 4 12 5 3 16 3 17 -15 0 -16 0 0 -21z"/>
<path d="M4071 1666 l-11 -13 14 -12 13 -11 12 14 11 13 -14 12 -13 11 -12 -14z"/>
<path d="M5173 1664 l-6 -16 14 -9 14 -8 9 9 9 9 -6 15 -6 16 -11 0 -11 0 -6 -16z"/>
<path d="M3387 1663 l-7 -6 0 -8 0 -7 25 -4 24 -5 -10 18 -10 19 -8 0 -8 0 -6 -7z"/>
<path d="M3620 1655 l0 -15 15 0 15 0 0 15 0 15 -15 0 -15 0 0 -15z"/>
<path d="M7700 1635 l-13 -16 28 -29 28 -30 14 11 13 11 0 19 0 18 -16 15 -15 16 -13 0 -14 0 -12 -15z"/>
<path d="M3680 1624 l0 -16 12 4 12 4 4 12 4 12 -16 0 -16 0 0 -16z"/>
<path d="M4130 1625 l0 -15 15 0 15 0 0 15 0 15 -15 0 -15 0 0 -15z"/>
<path d="M4820 1624 l0 -15 17 3 16 3 5 13 4 12 -21 0 -21 0 0 -16z"/>
<path d="M5570 1625 l0 -15 15 0 15 0 0 15 0 15 -15 0 -15 0 0 -15z"/>
<path d="M5717 1633 l-7 -6 0 -9 0 -8 20 0 20 0 0 15 0 15 -13 0 -14 0 -6 -7z"/>
<path d="M8992 1624 l3 -15 10 -2 10 -2 3 18 3 17 -16 0 -16 0 3 -16z"/>
<path d="M8812 1608 l-12 -12 0 -17 0 -17 -30 15 -31 15 -14 -12 -15 -12 0 -8 0 -8 20 -5 20 -5 0 -11 0 -11 -15 0 -14 0 -8 13 -8 13 -55 11 -55 11 -13 -11 -13 -10 3 -16 3 -16 35 -2 35 -3 30 -2 30 -2 7 -11 8 -10 0 -7 0 -6 -30 -11 -30 -10 0 -8 0 -8 21 -13 21 -13 30 6 29 7 13 -17 12 -16 26 6 27 7 5 13 5 13 -15 6 -14 5 0 13 0 12 33 -31 32 -30 18 -6 17 -6 0 -12 0 -12 -69 5 -69 5 -6 -19 -5 -20 -10 7 -11 6 0 19 0 19 -10 6 -10 6 -14 -33 -14 -33 -7 31 -7 32 -24 12 -23 13 -16 -13 -16 -13 -12 12 -12 12 23 5 22 6 0 29 0 29 -19 0 -20 0 -6 -19 -6 -19 -24 -16 -25 -16 0 -22 0 -21 -20 18 -21 19 16 9 17 9 -7 25 -6 25 16 24 16 25 -6 9 -6 10 -20 0 -19 0 0 30 0 30 -15 0 -14 0 -11 -19 -10 -20 6 -15 6 -16 9 0 9 0 0 -22 0 -22 -12 12 -12 12 -13 0 -13 0 0 -11 0 -12 16 -11 15 -12 4 -47 3 -47 -10 -6 -10 -6 -20 21 -20 22 7 39 7 40 -11 0 -11 0 0 15 0 15 10 0 10 0 0 23 0 23 -17 23 -16 24 -14 -18 -13 -19 0 -65 0 -64 -16 -18 -16 -18 46 -22 46 -21 0 -9 0 -9 -15 0 -15 0 -21 13 -20 12 -15 -19 -14 -20 0 27 0 27 -15 0 -15 0 -12 -25 -11 -25 -7 0 -7 0 -6 6 -6 6 10 25 10 26 -7 19 -6 20 -21 -7 -22 -7 -37 2 -38 1 0 -31 0 -30 11 0 11 0 18 22 18 22 16 -13 16 -13 -6 -9 -5 -9 -20 0 -19 0 0 -10 0 -11 18 -6 17 -7 17 -21 17 -20 -10 -10 -9 -9 0 -13 0 -13 20 0 19 0 16 -30 16 -31 9 6 10 6 0 19 0 19 10 6 10 6 6 -15 6 -16 14 0 14 0 0 25 0 25 8 0 8 0 11 -11 10 -10 52 3 51 3 1 10 0 10 -33 5 -33 5 -3 29 -4 28 11 -7 11 -6 0 -16 0 -15 44 6 44 7 5 -16 6 -15 26 0 25 0 0 14 0 14 -15 6 -15 5 0 21 0 20 9 0 9 0 12 -15 13 -16 17 16 16 15 31 -30 31 -30 6 15 5 15 16 0 15 0 0 -10 0 -10 29 0 30 0 7 11 7 11 33 -5 33 -6 34 27 34 26 11 25 12 25 0 12 0 12 15 12 15 12 0 10 0 9 -22 -3 -23 -3 0 -27 0 -26 -7 -7 -6 -7 -20 11 -21 11 -3 22 -3 23 -20 3 -20 3 -22 11 -23 11 0 12 0 13 15 12 15 12 0 18 0 18 -13 11 -13 11 -12 -12z m-11 -98 l9 0 0 -14 0 -15 -8 -5 -9 -5 -22 15 -21 15 6 10 6 10 15 -5 15 -6 9 0z m-501 -208 l0 -9 -6 -6 -7 -6 -9 5 -8 5 5 10 6 9 10 0 9 0 0 -8z"/>
<path d="M3450 1600 l0 -9 19 -11 20 -10 6 10 6 10 -6 10 -6 10 -20 0 -19 0 0 -10z"/>
<path d="M5450 1595 l0 -15 15 0 15 0 0 15 0 15 -15 0 -15 0 0 -15z"/>
<path d="M7166 1593 l-6 -6 0 -19 0 -18 15 0 15 0 0 19 0 20 -9 5 -8 5 -7 -6z"/>
<path d="M3638 1583 l-28 -4 0 -8 0 -9 13 -9 12 -9 58 4 57 4 0 9 0 9 -26 10 -25 10 -17 -1 -17 -2 -27 -4z"/>
<path d="M5770 1571 l-10 -20 0 -10 0 -11 13 0 13 0 18 13 17 13 -7 17 -6 17 -14 0 -13 0 -11 -19z"/>
<path d="M6655 1576 l-19 -13 22 -12 21 -11 14 0 15 0 11 13 11 13 -12 12 -12 12 -16 0 -16 0 -19 -14z"/>
<path d="M6853 1574 l-6 -15 11 -11 11 -11 -9 -17 -10 -18 15 -12 15 -12 15 12 16 13 -16 17 -15 16 11 11 12 12 -6 15 -6 16 -16 0 -16 0 -6 -16z"/>
<path d="M8144 1575 l-7 -16 11 -11 11 -11 16 7 16 6 -3 17 -3 18 -18 3 -17 3 -6 -16z"/>
<path d="M7906 1545 l-7 -35 -7 0 -8 0 -10 10 -9 9 -23 -5 -22 -6 0 -13 0 -13 45 -6 44 -7 21 11 20 11 0 24 0 23 -6 16 -6 16 -13 0 -13 0 -6 -35z"/>
<path d="M7688 1553 l-18 -4 0 -11 0 -11 16 -11 15 -12 -6 -27 -7 -27 -18 10 -18 10 -12 -15 -12 -14 21 -13 21 -13 0 -22 0 -23 -14 0 -14 0 -6 15 -5 15 -11 0 -10 0 0 -15 0 -15 15 0 15 0 0 -25 0 -25 -15 0 -15 0 0 10 0 10 -15 0 -15 0 0 -30 0 -30 -10 0 -9 0 -11 21 -11 20 -15 -12 -14 -11 0 -25 0 -24 15 -5 15 -6 0 -23 0 -23 6 -16 6 -16 22 0 21 -1 25 -33 25 -34 52 -24 53 -24 9 9 9 9 23 -14 24 -13 8 -13 8 -12 11 6 11 7 -15 11 -15 11 -7 22 -7 21 12 8 12 7 14 -19 14 -19 17 11 17 11 10 21 10 22 7 0 8 0 0 -15 0 -15 -10 0 -10 0 0 -10 0 -10 20 -20 21 -21 11 7 11 7 -18 13 -19 14 5 3 4 3 57 18 56 19 6 21 6 21 19 -24 18 -23 21 11 22 12 0 9 0 8 -31 31 -31 31 6 16 6 15 16 -3 17 -3 11 -20 11 -20 15 -12 15 -13 25 3 25 2 3 18 3 17 -24 0 -25 0 -6 16 -6 16 0 29 0 29 -25 0 -25 0 -20 -20 -20 -20 0 -9 0 -9 -37 -4 -38 -5 -22 10 -21 9 -5 18 -5 18 7 11 7 11 0 42 -1 43 -17 3 -16 3 -7 -20 -6 -21 -24 6 -23 6 -27 -46 -27 -46 -31 -8 -31 -8 -4 -12 -4 -12 42 -6 41 -7 -7 -21 -6 -21 -10 -10 -10 -10 -5 14 -5 13 -19 19 -19 19 -10 0 -11 0 -6 -16 -6 -17 12 -19 12 -20 -5 -5 -6 -6 -15 13 -15 12 -10 -26 -10 -26 -14 0 -15 0 -7 12 -8 12 12 4 12 4 0 8 0 9 -25 27 -26 28 -6 -22 -5 -22 -14 0 -14 0 0 20 0 21 25 24 24 25 8 0 8 0 13 30 14 30 38 0 39 0 6 10 6 10 -15 6 -16 6 0 17 0 16 20 13 20 12 0 11 0 12 -17 13 -18 13 28 10 27 11 0 10 0 10 -14 0 -13 0 -26 20 -25 20 -4 -1 -3 -1 -17 -5z m250 -251 l4 -12 -16 0 -16 0 0 16 0 16 12 -4 12 -4 4 -12z m-58 -43 l0 -9 -15 0 -15 0 0 8 0 9 6 6 7 6 8 -5 9 -5 0 -10z m41 -31 l-23 -8 -9 6 -9 5 5 8 5 8 27 -5 27 -5 -23 -9z m123 -4 l16 -6 0 -14 0 -14 -19 0 -20 0 -6 10 -6 10 6 10 6 10 4 0 3 0 16 -6z m-74 -35 l0 -19 25 -10 25 -10 0 -10 0 -10 -18 0 -18 0 -9 9 -10 9 -37 7 -36 7 -7 -22 -7 -21 -11 4 -11 3 -4 13 -4 12 21 6 21 5 0 9 0 9 26 0 26 0 5 20 5 20 9 -6 9 -5 0 -20z m-180 -48 l0 -9 -6 -16 -6 -16 -17 0 -18 0 -6 6 -6 6 12 19 12 19 17 0 18 0 0 -9z"/>
<path d="M8980 1550 l-15 -10 19 -15 20 -15 9 9 10 10 -6 15 -6 16 -8 0 -8 0 -15 -10z"/>
<path d="M4074 1536 l-6 -16 6 -16 6 -15 10 6 10 6 0 19 0 19 -10 6 -10 6 -6 -15z"/>
<path d="M4130 1535 l0 -15 15 0 15 0 0 15 0 15 -15 0 -15 0 0 -15z"/>
<path d="M4340 1535 l0 -17 11 4 11 4 0 9 0 10 -11 3 -11 4 0 -17z"/>
<path d="M5906 1519 l-5 -14 -3 -30 -3 -30 -28 -13 -27 -13 5 -10 6 -9 13 0 13 0 21 -19 22 -18 0 -21 0 -21 13 -8 12 -8 18 -27 17 -28 31 0 30 0 24 16 25 16 0 13 0 14 -22 7 -22 7 17 12 17 12 0 12 0 11 -14 0 -14 0 -6 -16 -6 -15 -20 3 -21 3 0 10 0 10 26 3 25 3 0 15 0 14 8 0 7 0 23 -6 22 -6 0 -19 0 -18 8 -5 9 -5 36 17 37 16 0 28 0 28 -15 0 -15 0 0 -9 0 -10 -21 -6 -21 -7 -5 6 -6 6 12 14 13 15 -7 10 -6 11 -21 -13 -21 -12 -4 13 -5 12 -19 0 -19 0 -32 20 -33 20 -14 0 -14 0 -19 16 -18 17 -4 -14z m44 -98 l0 -10 16 -15 15 -16 -13 0 -14 0 -23 16 -23 17 13 8 14 9 8 0 7 0 0 -9z m72 -6 l0 -9 -11 -4 -11 -4 0 17 0 17 11 -4 11 -3 0 -10z"/>
<path d="M6503 1514 l-6 -15 19 -13 18 -13 -22 -7 -22 -7 0 -14 0 -14 20 -6 20 -6 0 -10 0 -10 -42 6 -43 6 -20 -15 -20 -15 34 -12 33 -12 -18 -10 -19 -10 -6 -10 -7 -10 -7 22 -6 21 -24 0 -24 0 -7 -12 -7 -11 -6 -30 -6 -30 -19 -11 -19 -11 -4 13 -5 12 -14 0 -15 0 3 -27 3 -28 23 -3 22 -3 0 -9 0 -8 -25 -6 -25 -6 0 -19 0 -19 34 -16 34 -16 16 0 17 0 43 45 44 45 14 0 13 -1 -17 -13 -18 -13 0 -8 0 -8 17 -12 17 -12 -22 -7 -22 -7 0 -14 0 -14 10 -6 11 -7 -12 -14 -11 -14 6 -15 5 -15 17 0 16 0 19 23 18 22 1 11 0 12 -15 6 -15 5 0 11 0 10 20 0 19 0 12 21 11 22 -23 22 -24 23 -17 20 -17 21 -20 -6 -21 -5 0 16 0 16 30 0 30 0 0 30 0 30 14 0 15 0 6 -11 7 -10 -18 -14 -19 -14 13 -13 13 -13 17 23 17 22 17 -20 17 -20 18 7 18 7 16 20 17 20 -5 13 -5 13 23 19 24 19 -28 13 -27 12 -6 24 -6 23 -13 0 -14 0 -6 -10 -6 -10 -10 0 -9 0 0 21 0 20 -10 18 -9 19 -16 6 -16 6 -6 -16z m105 -131 l4 -13 -22 0 -22 0 8 -32 7 -33 -26 25 -25 24 17 23 16 23 19 -3 19 -2 5 -12z m-223 -159 l25 -16 -6 -9 -5 -9 -19 0 -18 0 -6 16 -6 16 0 9 0 9 5 0 6 0 24 -16z"/>
<path d="M6613 1516 l-16 -9 15 -11 16 -12 41 4 41 4 0 13 0 13 -40 4 -40 4 -17 -10z"/>
<path d="M8003 1523 l-33 -4 0 -8 0 -9 15 -12 15 -12 0 -22 0 -22 20 -22 20 -21 15 5 15 6 0 13 0 14 -20 6 -20 6 0 11 0 10 22 17 21 18 -6 16 -6 17 -13 -2 -13 -1 -32 -4z"/>
<path d="M8142 1501 l-10 -29 5 -6 6 -6 32 0 31 0 12 12 12 12 0 17 0 17 -31 6 -31 6 -8 0 -8 0 -10 -29z"/>
<path d="M6110 1500 l0 -20 9 0 9 0 11 13 11 14 -7 6 -6 7 -14 0 -13 0 0 -20z"/>
<path d="M7627 1514 l-6 -7 5 -8 5 -9 20 0 19 0 0 15 0 15 -18 0 -19 0 -6 -6z"/>
<path d="M8270 1505 l0 -15 15 0 15 0 0 15 0 15 -15 0 -15 0 0 -15z"/>
<path d="M6164 1485 l-7 -16 11 -11 11 -11 16 7 16 6 -3 17 -3 18 -18 3 -17 3 -6 -16z"/>
<path d="M4127 1484 l-6 -6 6 -14 5 -14 13 0 13 0 5 14 6 14 -6 6 -6 6 -12 0 -12 0 -6 -6z"/>
<path d="M4200 1479 l0 -11 23 -19 22 -18 18 -1 17 0 0 11 0 11 -22 19 -23 18 -17 1 -18 0 0 -11z"/>
<path d="M6975 1480 l-6 -10 15 -6 16 -6 16 6 15 6 -6 10 -6 10 -19 0 -19 0 -6 -10z"/>
<path d="M5237 1462 l-5 -7 5 -48 6 -47 12 0 13 0 5 23 4 22 7 16 7 16 -16 17 -16 16 -9 0 -9 0 -4 -8z"/>
<path d="M6644 1459 l-6 -11 16 -16 16 -16 11 11 12 12 -6 15 -6 16 -15 0 -15 0 -7 -11z"/>
<path d="M5180 1445 l0 -15 15 0 15 0 0 15 0 15 -15 0 -15 0 0 -15z"/>
<path d="M7897 1438 l-19 -20 6 -14 6 -15 25 18 24 18 1 18 0 17 -12 -1 -13 -1 -18 -20z"/>
<path d="M7004 1439 l-22 -8 -7 -11 -8 -12 14 -9 14 -9 23 0 22 0 0 -26 0 -26 -29 7 -28 6 -6 -15 -6 -15 12 -9 12 -10 20 -4 20 -5 -30 -7 -30 -8 -13 -4 -13 -4 6 -10 6 -10 20 0 19 0 0 -14 0 -15 10 -6 11 -7 14 12 15 12 0 24 0 23 10 6 11 7 -6 18 -6 19 18 10 18 10 -12 20 -13 21 0 18 0 19 -22 10 -23 10 -21 -8z"/>
<path d="M4070 1414 l0 -15 10 -20 11 -19 19 0 20 0 0 16 0 16 -22 19 -23 18 -7 1 -8 0 0 -16z"/>
<path d="M6367 1423 l-7 -6 0 -9 0 -8 25 0 25 0 0 15 0 15 -18 0 -19 0 -6 -7z"/>
<path d="M5181 1396 l-11 -13 14 -12 13 -11 12 14 11 13 -14 12 -13 11 -12 -14z"/>
<path d="M5690 1385 l0 -15 15 0 15 0 0 15 0 15 -15 0 -15 0 0 -15z"/>
<path d="M6765 1379 l-7 -21 14 -15 15 -14 12 15 13 15 -7 21 -6 20 -14 0 -14 0 -6 -21z"/>
<path d="M5828 1369 l-18 -10 0 -19 0 -20 -6 0 -7 0 -13 18 -13 17 -18 -11 -18 -11 -1 -19 -2 -19 -12 -30 -11 -30 -16 -17 -16 -18 17 -6 16 -6 0 -12 0 -11 -22 -10 -23 -10 -3 -19 -4 -19 14 -8 13 -9 -17 -11 -18 -10 0 -19 0 -20 16 0 16 0 39 43 38 42 1 28 0 27 21 23 21 22 46 48 47 47 7 0 8 0 0 10 0 11 -27 24 -28 24 -5 0 -5 0 -17 -10z m-38 -99 l14 -9 -6 -6 -6 -7 -21 7 -21 6 5 10 6 9 7 0 7 0 15 -10z"/>
<path d="M8000 1355 l0 -16 25 3 26 3 0 10 0 10 -26 3 -25 3 0 -16z"/>
<path d="M5237 1343 l-7 -6 0 -14 0 -13 20 0 20 0 0 20 0 20 -13 0 -14 0 -6 -7z"/>
<path d="M4095 1320 l-6 -20 6 -10 6 -10 15 0 14 0 0 30 0 30 -14 0 -15 0 -6 -20z"/>
<path d="M5635 1320 l-6 -20 -20 -10 -19 -11 0 -14 0 -15 -9 0 -9 0 -7 -29 -6 -29 -21 -5 -21 -6 13 -16 14 -17 -15 -9 -14 -9 -9 -3 -10 -3 7 -17 6 -17 17 0 16 0 5 20 5 20 24 0 24 0 0 11 0 12 -17 12 -17 12 23 8 23 7 -5 19 -5 19 29 31 29 31 0 18 0 19 -9 6 -10 5 -6 -20z"/>
<path d="M8072 1317 l-22 -23 7 -7 6 -7 14 0 13 0 0 15 0 15 15 0 15 0 0 15 0 15 -13 0 -14 0 -21 -23z"/>
<path d="M6123 1291 l-22 -28 6 -37 6 -36 12 0 12 0 6 36 6 36 17 13 17 12 -6 17 -6 16 -13 -1 -13 0 -22 -28z"/>
<path d="M6735 1310 l-7 -12 13 -13 14 -12 38 4 37 5 0 14 0 14 -14 0 -13 0 -31 6 -30 6 -7 -12z"/>
<path d="M7160 1310 l0 -9 -21 -20 -21 -19 22 -24 21 -23 16 -17 16 -18 -7 -7 -7 -7 -19 12 -20 12 -12 0 -13 0 -13 21 -13 21 -15 -12 -14 -12 0 -8 0 -8 22 -5 22 -6 -39 -36 -40 -35 -32 0 -32 0 -6 -11 -7 -10 18 -20 18 -20 -21 -5 -21 -6 3 -41 3 -41 18 -13 18 -13 -23 -21 -22 -21 3 -16 3 -17 20 0 20 0 3 27 3 28 25 6 24 6 0 15 0 16 38 -6 39 -5 18 10 17 10 -13 9 -14 9 -23 0 -23 0 -6 18 -7 17 -10 11 -11 10 -20 8 -20 7 25 19 25 19 11 -15 12 -15 26 7 26 6 0 -10 0 -11 -21 -15 -22 -15 27 -7 28 -7 25 -23 26 -24 13 0 14 0 0 14 0 15 21 14 21 15 -4 21 -3 20 10 3 10 3 3 -38 3 -37 -15 -6 -16 -6 0 -19 0 -19 9 0 9 0 15 23 15 22 6 -17 6 -18 5 -16 5 -15 10 6 10 6 0 24 0 23 -15 6 -15 5 0 36 0 36 15 5 15 6 0 14 0 14 14 0 14 0 6 -16 6 -17 18 15 17 16 18 -7 18 -7 -32 -23 -32 -24 -12 17 -12 16 -12 0 -11 0 0 -44 0 -44 15 -6 15 -5 0 -26 0 -25 -15 0 -15 0 0 -7 1 -8 18 -22 19 -23 11 0 11 0 0 11 0 12 -17 14 -18 14 13 6 12 5 15 34 14 34 11 0 11 0 -6 20 -6 20 10 0 11 0 0 -30 0 -30 20 -17 20 -17 0 -7 0 -7 -20 -5 -20 -5 0 -11 0 -11 15 0 16 0 5 15 6 15 13 0 13 0 6 23 6 22 -21 17 -21 18 6 16 6 16 -20 5 -20 5 0 9 0 8 12 7 11 7 13 -19 14 -19 26 -27 27 -27 8 5 9 5 0 19 0 18 16 6 16 6 14 0 14 0 0 -15 0 -15 15 0 15 0 0 14 0 14 -34 21 -33 21 -46 -6 -45 -6 -11 21 -12 21 7 11 6 10 15 -21 15 -21 14 12 14 12 -27 28 -28 28 -27 1 -27 0 -15 -15 -15 -16 -23 6 -24 6 -36 -35 -37 -36 -9 0 -9 0 -16 18 -17 19 7 6 6 7 24 0 23 0 0 13 -1 12 -14 19 -15 20 0 13 0 12 21 20 22 20 -6 15 -6 16 -15 0 -15 0 -9 -16 -9 -17 -7 12 -7 11 -15 0 -14 0 0 -11 0 -12 16 -11 16 -12 -7 -48 -8 -48 -14 -5 -14 -5 -6 6 -6 6 17 19 17 19 -7 28 -6 29 -15 12 -16 12 6 16 6 15 -5 15 -6 15 -14 0 -14 0 0 -10z m25 -217 l35 -36 0 -8 0 -8 -16 -15 -15 -16 -10 0 -9 0 0 14 0 15 10 6 10 6 0 9 0 9 -27 3 -28 3 -3 28 -3 27 10 0 10 0 36 -37z m-167 -82 l22 -30 -16 -15 -15 -16 -9 0 -8 0 -6 16 -6 16 0 29 0 29 8 0 8 0 22 -29z m379 -27 l-6 -6 -10 7 -11 6 6 11 6 10 11 -11 11 -11 -7 -6z"/>
<path d="M7700 1310 l0 -9 -21 -20 -21 -19 7 -21 6 -21 15 0 14 0 0 21 0 21 22 17 21 18 -7 11 -7 12 -15 0 -14 0 0 -10z"/>
<path d="M8001 1306 l-11 -13 14 -13 15 -12 11 7 10 6 0 14 0 13 -14 5 -15 6 -10 -13z"/>
<path d="M5180 1295 l0 -15 10 0 10 0 0 -15 0 -15 -23 0 -23 0 -1 -56 -1 -55 -11 -13 -11 -13 7 -6 6 -7 19 0 18 0 0 24 0 24 20 5 20 5 0 15 0 16 -10 6 -11 7 12 14 11 14 19 0 19 0 0 20 0 20 -25 12 -25 11 0 9 0 8 -15 0 -15 0 0 -15z"/>
<path d="M8630 1295 l0 -15 15 0 15 0 0 15 0 15 -15 0 -15 0 0 -15z"/>
<path d="M3560 1266 l0 -16 21 0 21 0 -4 13 -5 12 -16 3 -17 3 0 -15z"/>
<path d="M6680 1260 l0 -20 11 0 10 0 -13 -13 -13 -13 -20 -38 -20 -37 18 -14 18 -13 -20 -7 -21 -6 -12 -22 -11 -22 -24 -18 -23 -18 0 -20 0 -19 17 -19 17 -20 8 6 9 5 44 -7 44 -6 -12 -19 -11 -20 11 -11 11 -11 22 12 21 11 30 -6 29 -7 0 -14 0 -14 15 0 15 0 0 14 0 15 -11 6 -10 7 17 12 17 13 -6 39 -7 39 -10 3 -10 4 0 14 0 14 25 12 25 11 0 24 0 23 -15 0 -16 0 -34 -35 -35 -34 0 -10 0 -10 18 -13 19 -13 -5 -37 -4 -37 -15 -6 -16 -5 -5 5 -5 5 13 25 14 25 -22 20 -21 20 -10 0 -9 0 -6 -17 -7 -17 -14 15 -14 14 -6 28 -7 27 17 0 16 0 19 -10 19 -10 11 19 10 20 0 9 0 10 -21 5 -21 6 7 10 6 11 15 0 14 0 0 10 0 10 25 0 25 0 0 19 0 19 -12 6 -13 5 18 14 17 14 0 11 0 11 -11 6 -10 7 -21 -18 -20 -19 -23 28 -24 27 -11 0 -10 0 0 -20z m55 -80 l6 -10 -10 0 -10 0 -15 -16 -16 -15 0 19 0 20 13 5 12 5 7 1 7 1 6 -10z m-85 -158 l0 -9 -20 -18 -20 -19 -13 13 -12 12 23 5 22 6 0 9 0 9 10 0 10 0 0 -8z"/>
<path d="M6524 1249 l-6 -11 16 -16 16 -16 11 11 12 12 -6 15 -6 16 -15 0 -15 0 -7 -11z"/>
<path d="M5930 1226 l0 -25 12 -7 12 -8 45 -3 45 -2 13 11 13 11 -11 14 -12 14 -26 -6 -26 -6 -20 15 -20 15 -12 1 -13 0 0 -24z"/>
<path d="M7460 1241 l0 -10 23 -24 22 -24 13 4 12 5 0 10 0 10 -22 19 -23 18 -12 1 -13 0 0 -9z"/>
<path d="M4520 1205 l0 -15 9 0 10 0 6 -20 6 -20 12 0 12 0 15 10 14 9 -14 25 -13 26 -29 0 -28 0 0 -15z"/>
<path d="M6914 1185 l-7 -16 11 -11 11 -11 16 7 16 6 -3 17 -3 18 -18 3 -17 3 -6 -16z"/>
<path d="M5956 1163 l-8 -8 -14 -34 -15 -35 26 -24 26 -24 15 6 14 5 0 21 0 20 10 0 11 0 6 16 6 15 -23 25 -23 24 -12 0 -12 0 -7 -7z"/>
<path d="M6980 1155 l-12 -14 7 -11 6 -10 14 0 13 0 6 16 6 16 -6 9 -5 9 -8 0 -9 0 -12 -15z"/>
<path d="M6233 1098 l-12 -14 9 -14 10 -15 0 -6 0 -7 -17 2 -17 1 -12 -24 -13 -25 5 -8 5 -8 18 0 18 0 11 25 12 25 17 1 18 0 23 30 24 29 -18 7 -18 7 -4 -12 -4 -12 -10 0 -11 0 -11 16 -12 16 -11 -14z"/>
<path d="M6894 1095 l-6 -14 7 -11 6 -10 20 11 20 10 -12 15 -11 14 -10 0 -9 0 -5 -15z"/>
<path d="M6530 1065 l-12 -14 7 -11 6 -10 14 0 14 0 5 9 6 9 -6 16 -6 16 -8 0 -8 0 -12 -15z"/>
<path d="M6860 1000 l0 -41 15 -5 15 -6 0 -13 0 -14 -20 -6 -20 -6 5 -10 6 -9 25 0 24 0 11 24 11 24 -16 33 -16 32 0 19 0 18 -20 0 -20 0 0 -40z"/>
<path d="M6475 1019 l-7 -10 6 -23 6 -24 -20 -5 -20 -5 0 -15 0 -16 11 -7 11 -6 29 21 28 21 11 0 12 0 -7 -31 -7 -31 28 4 27 3 4 11 4 11 -23 25 -23 25 -17 32 -17 31 -15 0 -15 0 -6 -11z"/>
<path d="M6412 1008 l-12 -12 0 -10 0 -9 -16 -18 -16 -18 5 -16 6 -15 16 0 16 0 6 30 6 30 8 0 9 0 0 19 0 20 -8 5 -9 5 -11 -11z"/>
<path d="M7706 1003 l-7 -23 -15 0 -14 0 0 -25 0 -25 15 0 15 0 0 24 0 24 11 4 11 4 -4 19 -4 20 -8 -22z"/>
<path d="M7760 995 l0 -15 15 0 15 0 0 15 0 15 -15 0 -15 0 0 -15z"/>
<path d="M6276 961 l-28 -29 6 -11 7 -11 14 0 13 0 5 14 6 15 28 3 28 3 0 20 0 20 -25 3 -25 3 -29 -30z"/>
<path d="M7613 972 l-6 -23 -22 5 -23 6 -5 -14 -6 -14 6 -6 6 -6 24 0 23 0 0 11 0 12 18 13 17 13 -13 13 -13 13 -6 -23z"/>
<path d="M7150 935 l0 -15 11 0 10 0 10 -30 11 -30 17 0 18 0 6 6 6 7 -10 19 -11 20 -16 19 -16 19 -18 0 -18 0 0 -15z"/>
<path d="M7250 910 l0 -21 15 -5 15 -6 0 -14 0 -14 15 0 16 0 5 15 6 15 -23 25 -24 25 -12 0 -13 0 0 -20z"/>
<path d="M6611 898 l-9 -23 17 -9 16 -9 8 -14 8 -13 14 0 15 0 0 14 0 14 -15 6 -15 5 0 26 0 25 -15 0 -16 0 -8 -22z"/>
<path d="M7040 905 l0 -15 -20 -17 -20 -17 0 -13 0 -13 10 0 9 0 19 -20 19 -21 12 15 12 15 -21 11 -22 12 16 17 16 18 0 21 0 22 -15 0 -15 0 0 -15z"/>
<path d="M6854 859 l-6 -11 25 -24 26 -24 11 0 12 0 -4 8 -4 7 -13 28 -14 27 -13 0 -13 0 -7 -11z"/>
<path d="M6742 839 l3 -24 10 3 10 2 0 17 0 16 -13 5 -14 4 4 -23z"/>
<path d="M7100 846 l0 -15 21 -6 21 -7 5 6 5 5 -5 16 -6 15 -21 0 -20 0 0 -14z"/>
<path d="M6953 824 l-6 -15 10 -10 9 -9 19 13 18 14 -7 11 -7 12 -15 0 -15 0 -6 -16z"/>
<path d="M3165 1246 l-19 -13 23 -8 23 -7 9 9 10 10 -14 11 -14 12 -18 -14z"/>
<path d="M4920 814 l0 -16 12 4 12 4 4 12 4 12 -16 0 -16 0 0 -16z"/>
<path d="M7940 575 l0 -15 15 0 15 0 0 15 0 15 -15 0 -15 0 0 -15z"/>
<path d="M222 1562 l-32 -29 0 -30 0 -31 -15 -6 -16 -6 3 -62 3 -62 28 -16 28 -15 7 12 7 11 30 4 30 3 0 20 0 20 -42 3 -43 3 0 34 0 33 15 6 15 5 0 28 1 28 10 -17 10 -18 14 0 14 0 10 18 10 17 15 -20 15 -20 1 -67 0 -66 6 -16 6 -16 13 0 13 0 6 16 6 16 0 30 0 30 16 -6 16 -6 4 0 4 0 0 -26 0 -26 20 -5 20 -5 0 -9 0 -9 14 0 14 0 6 13 5 12 11 -17 11 -18 18 0 17 0 27 28 26 27 9 25 9 25 7 -32 8 -33 14 0 14 0 6 26 6 25 -5 45 -5 44 7 0 7 0 11 -31 12 -30 28 3 28 3 3 26 3 27 20 18 19 17 0 -76 0 -77 25 0 25 0 0 84 0 84 -15 12 -15 12 0 15 0 14 -15 5 -14 6 -25 -29 -25 -28 -1 -17 0 -18 -20 0 -20 0 0 34 0 34 -12 9 -13 9 -48 -2 -48 -2 -6 -6 -6 -6 10 -12 10 -13 5 -47 5 -47 -18 -17 -19 -17 0 -17 0 -17 -19 -17 -18 -17 -6 58 -6 57 6 43 6 43 -18 6 -17 7 -9 -14 -9 -14 -1 -25 -2 -25 -6 50 -6 50 -20 0 -20 0 -3 -61 -3 -62 -19 -17 -20 -18 0 46 0 46 10 6 11 7 -12 14 -11 14 -19 0 -18 0 -10 -17 -9 -17 -21 24 -20 25 -1 8 0 7 -18 0 -18 0 -32 -28z m265 -209 l-5 -18 0 35 0 35 5 -17 4 -18 -4 -17z"/>
<path d="M1067 1520 l-38 -39 3 -28 3 -28 25 -5 25 -5 20 -12 20 -12 -22 -20 -22 -21 -41 0 -40 0 0 -25 0 -25 49 0 50 0 15 15 15 15 10 0 11 0 0 -24 0 -24 15 -5 14 -6 19 27 19 27 6 18 7 18 27 -3 28 -3 10 -52 10 -51 8 -9 9 -8 14 20 15 20 10 -17 10 -18 44 0 44 0 6 -10 7 -11 14 12 14 11 0 69 0 68 19 10 18 10 6 -55 6 -56 17 -19 17 -19 14 0 13 0 0 55 0 55 10 0 10 0 0 -70 0 -71 16 -6 15 -6 9 9 8 9 4 120 3 120 -28 3 -27 3 0 -23 0 -24 -12 -27 -13 -27 -6 0 -7 0 -6 25 -6 25 -10 0 -10 0 0 23 0 23 -13 18 -13 18 -25 -4 -24 -3 -3 -44 -3 -44 -15 -14 -14 -14 0 -45 0 -44 -35 0 -35 0 0 66 0 65 15 15 15 15 0 12 0 12 -10 15 -10 15 -23 -25 -24 -26 -11 -29 -10 -30 -1 56 -1 55 -12 12 -12 12 -24 0 -24 0 -5 -19 -5 -20 -14 -5 -14 -5 0 -29 0 -30 -15 -12 -15 -12 0 -24 0 -24 -9 0 -9 0 5 39 5 38 -45 23 -45 22 19 19 19 19 13 0 13 0 11 -11 12 -12 15 6 16 6 0 31 0 30 -47 0 -48 -1 -38 -39z m205 -102 l-12 -12 -6 7 -6 6 6 17 7 17 11 -11 12 -12 -12 -12z"/>
<path d="M2054 1461 l-6 -31 -14 -11 -14 -11 0 -35 0 -34 -20 11 -20 11 0 53 0 54 -16 6 -15 6 -25 -27 -24 -26 0 -17 0 -18 -15 -28 -15 -29 0 -40 0 -41 -12 -12 -13 -13 15 -9 15 -10 20 2 20 3 3 68 3 67 19 -10 20 -11 0 -35 0 -35 16 -24 16 -25 24 0 24 0 0 49 0 49 15 12 15 12 0 33 0 33 16 12 15 13 -3 31 -3 31 -18 3 -17 4 -6 -31z"/>
<path d="M1758 1431 l-38 -39 0 -26 0 -26 -9 0 -9 0 -6 -25 -7 -26 17 -35 17 -36 14 -5 14 -5 18 16 18 16 12 0 11 0 13 28 12 27 12 8 13 8 0 69 0 69 -19 11 -20 10 -13 0 -13 -1 -37 -38z m33 -120 l-21 -21 -15 0 -15 0 0 14 0 14 15 6 15 5 0 21 0 21 18 24 17 23 3 -44 3 -43 -20 -20z"/>
</g>
</svg>